<svg width="84" height="100" viewBox="0 0 84 100" fill="none" xmlns="http://www.w3.org/2000/svg">
<g clip-path="url(#clip0_7539_21973)">
<path d="M30.7703 96.0235L31.2921 94.6796C31.2921 94.6796 32.2803 96.5137 32.1775 97.5414C32.0971 98.1975 31.8642 98.8256 31.4976 99.3756H24.9201C21.9475 99.3756 22.1847 97.1857 22.4851 96.4742C22.7855 95.7626 23.9081 94.2289 23.1096 95.8575C22.9835 96.0977 22.9196 96.3657 22.924 96.637C22.9283 96.9083 23.0007 97.1741 23.1344 97.4101C23.2682 97.6462 23.459 97.8448 23.6895 97.988C23.92 98.1311 24.1827 98.214 24.4536 98.2292H31.4581C31.7032 97.6442 30.7703 96.0235 30.7703 96.0235ZM34.6362 99.8578C34.6362 99.8578 34.5335 96.822 34.0117 93.13C33.9457 92.1118 34.2241 91.101 34.8023 90.2602C34.8023 90.2602 35.1501 94.8851 35.2529 97.0276C35.3557 99.17 34.6204 99.8578 34.6204 99.8578H34.6362ZM50.4478 99.2017C47.8547 99.3044 45.3881 99.3914 43.0638 99.4467C43.0638 99.4467 41.9174 99.1226 41.9174 98.0948C41.9174 98.0948 41.4036 99.1226 40.9529 99.336C40.2256 99.6839 37.1186 99.8895 37.253 99.0989C37.3874 98.3083 37.6404 97.0276 37.7748 97.0987C37.9092 97.1699 37.2689 98.5059 38.8105 98.5059C40.3521 98.5059 41.5696 98.1897 41.6407 97.5414C41.5497 96.613 41.3534 95.698 41.0557 94.8139L41.7119 93.636C41.9664 94.6392 42.1513 95.6589 42.2653 96.6876C42.2653 96.6876 42.2653 98.1976 43.4749 98.1976H45.4039C45.1567 98.1342 44.9448 97.9756 44.8144 97.7563C44.684 97.537 44.6458 97.275 44.7082 97.0276C44.9216 96.0947 47.404 93.636 48.5741 94.7507C49.7441 95.8654 49.926 96.5453 49.7204 96.4742C49.5149 96.403 48.7955 95.2646 47.5464 95.5808C46.2972 95.897 45.4355 96.1342 45.5778 96.5137C45.7201 96.8932 45.8861 97.7786 47.9495 98.1976L50.9933 98.0948L50.4478 99.2017ZM77.9914 92.6478C77.9237 92.6206 77.863 92.5785 77.8139 92.5244C77.7648 92.4704 77.7287 92.406 77.7081 92.3359C77.6876 92.2659 77.6832 92.1921 77.6953 92.1202C77.7074 92.0482 77.7357 91.9799 77.778 91.9204C78.0942 91.4382 78.5686 90.5686 78.5686 90.5686C78.5686 90.5686 78.2286 91.2247 79.0508 91.6438C79.873 92.0628 79.4935 92.2288 79.4935 92.2288L79.0508 93.2012H78.8136C78.8136 93.2012 79.3987 97.5414 79.122 98.4743C79.0569 98.8145 78.9396 99.1425 78.7741 99.4467H74.9398V98.5771C74.9398 98.5771 74.418 99.51 74.0386 99.51H71.4218L70.9316 100L68.0618 98.3715C68.0618 98.3715 67.6586 99.4783 67.0024 99.4783H65.026L64.7888 99.0593C64.4573 99.322 64.0615 99.4913 63.6425 99.5495C63.1232 99.4405 62.6312 99.2281 62.1957 98.925C61.7464 99.2793 61.1866 99.464 60.6146 99.4467H58.9306C58.9306 99.4467 58.1401 99.0989 58.1401 98.8222C58.1401 98.5455 57.8317 99.4783 56.9621 99.4783H53.3729C53.3729 99.4783 53.0646 93.7071 52.7167 91.4382L53.5073 90.2207C53.5073 90.2207 53.6101 92.2525 53.7524 94.3001C53.8947 96.3477 53.8868 98.3004 54.5429 98.253C55.1991 98.2055 57.5076 98.253 57.5076 98.253C57.5076 98.253 58.4089 98.4664 58.1322 97.0829L59.1994 96.0077C59.1994 96.0077 59.1994 97.66 58.6144 98.2134C59.7621 98.4729 60.9532 98.4729 62.1009 98.2134V97.2647L63.2393 96.1184L62.6147 98.1502C63.2139 98.349 63.8552 98.3845 64.4726 98.253L64.3066 96.9485L65.0971 95.9445C65.24 96.7286 65.24 97.5321 65.0971 98.3162H67.4689C67.4689 98.3162 67.8404 98.3162 68.046 97.5889C68.2515 96.8615 68.4255 96.6955 69.224 96.2133C70.0224 95.731 70.8842 95.3832 70.8842 95.8338C70.8842 96.2844 71.2557 98.2055 72.157 98.2767C73.0582 98.3478 74.7501 98.2767 74.7501 98.2767C74.5946 96.1275 74.3307 93.9876 73.9595 91.8651L74.9398 90.4658C74.9398 90.4658 75.1217 92.545 75.3509 95.6836C75.4853 97.4308 75.5169 98 75.5249 98.166H78.5607C78.5269 96.3138 78.3364 94.4678 77.9914 92.6478ZM75.5407 98.1818L68.7338 97.3912C69.8722 98.1107 70.5679 98.4427 70.813 98.3953C70.7615 97.8733 70.5969 97.3688 70.3308 96.9169C69.8801 96.1421 68.7338 97.3675 68.7338 97.3675L75.5407 98.1818ZM34.4307 94.2684L35.664 95.0986L35.1501 95.9603L33.8931 95.1302L33.3871 96.0552L32.0669 95.1934L32.5886 94.3001L33.8931 95.0907L34.4307 94.2684Z" fill="white"/>
<path d="M30.7703 96.0235L31.2921 94.6796C31.2921 94.6796 32.2803 96.5137 32.1775 97.5414C32.0971 98.1975 31.8642 98.8256 31.4976 99.3756H24.9201C21.9475 99.3756 22.1847 97.1857 22.4851 96.4742C22.7855 95.7626 23.9081 94.2289 23.1096 95.8575C22.9835 96.0977 22.9196 96.3657 22.924 96.637C22.9283 96.9083 23.0007 97.1741 23.1344 97.4101C23.2682 97.6462 23.459 97.8448 23.6895 97.988C23.92 98.1311 24.1827 98.214 24.4536 98.2292H31.4581C31.7032 97.6442 30.7703 96.0235 30.7703 96.0235ZM34.6362 99.8578C34.6362 99.8578 34.5335 96.822 34.0117 93.13C33.9457 92.1118 34.2241 91.101 34.8023 90.2602C34.8023 90.2602 35.1501 94.8851 35.2529 97.0276C35.3557 99.17 34.6204 99.8578 34.6204 99.8578H34.6362ZM50.4478 99.2017C47.8547 99.3044 45.3881 99.3914 43.0638 99.4467C43.0638 99.4467 41.9174 99.1226 41.9174 98.0948C41.9174 98.0948 41.4036 99.1226 40.9529 99.336C40.2256 99.6839 37.1186 99.8895 37.253 99.0989C37.3874 98.3083 37.6404 97.0276 37.7748 97.0987C37.9092 97.1699 37.2689 98.5059 38.8105 98.5059C40.3521 98.5059 41.5696 98.1897 41.6407 97.5414C41.5497 96.613 41.3534 95.698 41.0557 94.8139L41.7119 93.636C41.9664 94.6392 42.1513 95.6589 42.2653 96.6876C42.2653 96.6876 42.2653 98.1976 43.4749 98.1976H45.4039C45.1567 98.1342 44.9448 97.9756 44.8144 97.7563C44.684 97.537 44.6458 97.275 44.7082 97.0276C44.9216 96.0947 47.404 93.636 48.5741 94.7507C49.7441 95.8654 49.926 96.5453 49.7204 96.4742C49.5149 96.403 48.7955 95.2646 47.5464 95.5808C46.2972 95.897 45.4355 96.1342 45.5778 96.5137C45.7201 96.8932 45.8861 97.7786 47.9495 98.1976L50.9933 98.0948L50.4478 99.2017ZM77.9914 92.6478C77.9237 92.6206 77.863 92.5785 77.8139 92.5244C77.7648 92.4704 77.7287 92.406 77.7081 92.3359C77.6876 92.2659 77.6832 92.1921 77.6953 92.1202C77.7074 92.0482 77.7357 91.9799 77.778 91.9204C78.0942 91.4382 78.5686 90.5686 78.5686 90.5686C78.5686 90.5686 78.2286 91.2247 79.0508 91.6438C79.873 92.0628 79.4935 92.2288 79.4935 92.2288L79.0508 93.2012H78.8136C78.8136 93.2012 79.3987 97.5414 79.122 98.4743C79.0569 98.8145 78.9396 99.1425 78.7741 99.4467H74.9398V98.5771C74.9398 98.5771 74.418 99.51 74.0386 99.51H71.4218L70.9316 100L68.0618 98.3715C68.0618 98.3715 67.6586 99.4783 67.0024 99.4783H65.026L64.7888 99.0593C64.4573 99.322 64.0615 99.4913 63.6425 99.5495C63.1232 99.4405 62.6312 99.2281 62.1957 98.925C61.7464 99.2793 61.1866 99.464 60.6146 99.4467H58.9306C58.9306 99.4467 58.1401 99.0989 58.1401 98.8222C58.1401 98.5455 57.8317 99.4783 56.9621 99.4783H53.3729C53.3729 99.4783 53.0646 93.7071 52.7167 91.4382L53.5073 90.2207C53.5073 90.2207 53.6101 92.2525 53.7524 94.3001C53.8947 96.3477 53.8868 98.3004 54.5429 98.253C55.1991 98.2055 57.5076 98.253 57.5076 98.253C57.5076 98.253 58.4089 98.4664 58.1322 97.0829L59.1994 96.0077C59.1994 96.0077 59.1994 97.66 58.6144 98.2134C59.7621 98.4729 60.9532 98.4729 62.1009 98.2134V97.2647L63.2393 96.1184L62.6147 98.1502C63.2139 98.349 63.8552 98.3845 64.4726 98.253L64.3066 96.9485L65.0971 95.9445C65.24 96.7286 65.24 97.5321 65.0971 98.3162H67.4689C67.4689 98.3162 67.8404 98.3162 68.046 97.5889C68.2515 96.8615 68.4255 96.6955 69.224 96.2133C70.0224 95.731 70.8842 95.3832 70.8842 95.8338C70.8842 96.2844 71.2557 98.2055 72.157 98.2767C73.0582 98.3478 74.7501 98.2767 74.7501 98.2767C74.5946 96.1275 74.3307 93.9876 73.9595 91.8651L74.9398 90.4658C74.9398 90.4658 75.1217 92.545 75.3509 95.6836C75.4853 97.4308 75.5169 98 75.5249 98.166H78.5607C78.5269 96.3138 78.3364 94.4678 77.9914 92.6478ZM75.5407 98.1818L68.7338 97.3912C69.8722 98.1107 70.5679 98.4427 70.813 98.3953C70.7615 97.8733 70.5969 97.3688 70.3308 96.9169C69.8801 96.1421 68.7338 97.3675 68.7338 97.3675L75.5407 98.1818ZM34.4307 94.2684L35.664 95.0986L35.1501 95.9603L33.8931 95.1302L33.3871 96.0552L32.0669 95.1934L32.5886 94.3001L33.8931 95.0907L34.4307 94.2684Z" fill="white"/>
<path d="M62.3309 88.6868H59.2714V77.6187H62.3309V88.6868ZM50.2351 83.1528C50.3241 82.3106 50.2103 81.4595 49.903 80.6704C49.7253 80.4573 49.4989 80.29 49.243 80.1827C48.9871 80.0754 48.7091 80.0311 48.4326 80.0537H47.0886V86.2597H48.4326C48.7098 86.2814 48.9882 86.2359 49.2441 86.1272C49.5001 86.0185 49.7261 85.8497 49.903 85.6352C50.1161 85.2673 50.2305 84.8507 50.2351 84.4256V83.1528ZM53.3025 83.1528C53.3249 83.945 53.2879 84.7378 53.1918 85.5245C53.1088 86.0084 52.9252 86.4695 52.6528 86.8781C52.3805 87.2866 52.0255 87.6335 51.6107 87.8962C50.7185 88.4449 49.685 88.7198 48.6381 88.6868H44.029V77.6187H48.646C49.6933 77.5819 50.7279 77.8571 51.6186 78.4093C52.0347 78.6706 52.3907 79.017 52.6632 79.4258C52.9358 79.8346 53.1186 80.2965 53.1997 80.781C53.2936 81.5705 53.3279 82.366 53.3025 83.1607V83.1528ZM35.2299 81.1842C35.2334 81.0311 35.2 80.8793 35.1326 80.7417C35.0652 80.6042 34.9657 80.4848 34.8426 80.3937C34.5804 80.172 34.2448 80.0564 33.9018 80.0695H32.1704V82.2989H33.9018C34.2419 82.31 34.575 82.2008 34.8426 81.9906C34.9631 81.8953 35.0606 81.774 35.1277 81.6357C35.1947 81.4975 35.2297 81.3458 35.2299 81.1921V81.1842ZM38.9535 88.6789H35.4118L33.1982 84.6153H32.1704V88.7263H29.0872V77.6583H34.0204C35.1124 77.6177 36.184 77.9618 37.0483 78.6307C37.4402 78.9341 37.7554 79.3255 37.9682 79.7732C38.1811 80.2209 38.2857 80.7124 38.2737 81.208C38.2827 81.8418 38.0911 82.4622 37.7262 82.9805C37.3612 83.4988 36.8417 83.8884 36.2419 84.0935L38.9535 88.6789ZM20.0904 84.7655L19.0389 81.8167L17.9163 84.7655H20.0904ZM24.6757 88.6789H21.5134L20.9363 87.0345H17.102L16.4854 88.6789H13.2756L17.8135 77.6108H20.1853L24.6757 88.6789ZM10.7616 77.6108L6.99845 84.1568V88.6552H3.93893V84.1568L0.175781 77.6108H3.51992L5.48055 81.5637L7.41746 77.6108H10.7616ZM79.7078 88.6789H76.6403V83.3899L74.2686 87.074H73.2488L71.1063 83.3899V88.6789H68.0468V77.6108H71.0589L73.8575 82.4808L76.6561 77.6108H79.6841L79.7078 88.6789Z" fill="white"/>
<path d="M18.309 99.9526H17.6528L20.2933 91.9678H20.9732L18.309 99.9526ZM11.5417 92.79V99.2095C11.6917 99.2197 11.8423 99.2197 11.9923 99.2095C13.2967 99.2095 14.5538 98.498 14.5538 95.81C14.5538 93.8098 13.7632 92.7188 12.0951 92.7188C11.9088 92.7257 11.7236 92.7495 11.5417 92.79ZM10.3637 99.9052V92.1496C10.8839 92.043 11.4139 91.9927 11.9449 91.9994C12.7954 91.9456 13.642 92.1525 14.3719 92.5923C14.8587 92.9644 15.2426 93.4543 15.4875 94.0159C15.7323 94.5775 15.83 95.1922 15.7713 95.8021C15.7713 97.6046 15.1862 98.5928 14.5221 99.1304C13.705 99.7506 12.692 100.056 11.6682 99.9921C11.2319 100.001 10.7957 99.9743 10.3637 99.9131V99.9052ZM7.11444 91.9994H8.3003V99.9052H7.11444V91.9994ZM2.05475 96.814H4.02329L3.4857 94.806C3.33549 94.2447 3.19318 93.5885 3.06669 92.9955C2.88485 93.5964 2.73465 94.2763 2.59234 94.806L2.05475 96.814ZM4.17349 97.5414H1.88873L1.19302 99.9131H0.0625L2.43423 92.0073H3.73868L6.04716 99.9131H4.87711L4.17349 97.5414Z" fill="white"/>
<path d="M63.1512 58.0205H67.3729L72.7726 73.5474H68.5509L67.6101 70.8595H62.9141L61.9733 73.5474H57.7595L63.1512 58.0205ZM65.2621 64.1396L64.0446 67.6181H66.4796L65.2621 64.1396ZM19.8593 58.0205H24.081L29.4806 73.5474H25.2589L24.3181 70.8595H19.5984L18.6576 73.5474H14.4438L19.8593 58.0205ZM21.9701 64.1396L20.7526 67.6181H23.1876L21.9701 64.1396ZM32.6903 68.0925L27.2986 58.0284H31.5124L34.8012 64.1633L38.09 58.0284H42.3116L36.912 68.0925V73.5474H32.6903V68.0925ZM8.41964 58.0284H12.6413V73.5474H8.41964V67.4442H4.22168V73.5474H0V58.0205H4.22168V63.8154H8.41964V58.0284ZM75.1996 58.0284H83.6351V61.5544H79.4608V73.5474H75.2392V61.5465H70.9859V58.0205L75.1996 58.0284ZM51.6325 63.0881C51.6356 62.8756 51.5886 62.6653 51.4952 62.4744C51.4018 62.2834 51.2646 62.1172 51.095 61.9892C50.7269 61.6781 50.2564 61.5146 49.7747 61.5307H47.403V64.6455H49.7747C50.2524 64.6617 50.7203 64.5076 51.095 64.2107C51.2657 64.0766 51.4031 63.9047 51.4964 63.7085C51.5896 63.5124 51.6363 63.2974 51.6325 63.0802V63.0881ZM56.8266 73.5474H51.8776L48.8023 67.8158H47.3634V73.5474H43.0943V58.1312H49.9723C51.4956 58.0747 52.9901 58.5561 54.194 59.491C54.7425 59.9113 55.1833 60.4559 55.4802 61.0799C55.7771 61.7039 55.9215 62.3895 55.9017 63.0802C55.9017 64.9302 54.953 66.2425 53.0714 67.1042L56.8266 73.5474Z" fill="white"/>
<path d="M15.9375 22.5949C16.2503 16.7532 18.6949 11.2291 22.8082 7.06919C26.9215 2.90931 32.4176 0.402593 38.2554 0.0239258C33.2865 2.14062 29.1811 5.87797 26.6083 10.6268C24.0356 15.3756 23.1472 20.8559 24.088 26.1742C25.0288 31.4926 27.7433 36.3356 31.7891 39.9136C35.8348 43.4916 40.9732 45.5937 46.3668 45.8774C47.2988 45.9327 48.2333 45.9327 49.1654 45.8774C45.4336 47.4567 41.3617 48.0619 37.3319 47.6361C33.3021 47.2104 29.4465 45.7676 26.1272 43.4433C22.8078 41.1189 20.1335 37.9892 18.3553 34.348C16.5771 30.7068 15.7533 26.6734 15.9612 22.6265L15.9375 22.5949Z" fill="white"/>
<path d="M25.1324 20.8157C25.2248 19.0119 25.5327 17.2257 26.0495 15.4951C25.8186 16.5354 25.6758 17.5932 25.6226 18.6574C25.3687 23.4202 26.8767 28.1098 29.8591 31.8319C32.8415 35.554 37.0895 38.0482 41.7931 38.8388C46.4966 39.6294 51.3267 38.6611 55.362 36.1186C59.3974 33.5761 62.3558 29.6372 63.673 25.0532C63.4874 28.8353 62.4049 32.5191 60.5147 35.8003C58.6246 39.0816 55.9812 41.8662 52.8026 43.9242C49.3979 44.7268 45.8532 44.7256 42.4491 43.9209C39.045 43.1161 35.8751 41.5298 33.1903 39.2876C30.5055 37.0454 28.3796 34.2089 26.981 31.0027C25.5824 27.7966 24.9495 24.3088 25.1324 20.8157Z" fill="white"/>
<path d="M35.5997 16.8709C35.5997 16.7681 35.5997 16.6891 35.6708 16.6891C35.742 16.6891 35.742 16.7681 35.742 16.8709C35.742 16.9737 35.742 17.0527 35.6708 17.0527C35.5997 17.0527 35.5997 16.9737 35.5997 16.8709ZM35.1807 16.8709C35.1807 16.7365 35.2518 16.6337 35.3388 16.6337C35.4257 16.6337 35.5048 16.7365 35.5048 16.8709C35.5048 17.0053 35.4336 17.1081 35.3388 17.1081C35.2439 17.1081 35.1807 17.0053 35.1807 16.8709ZM34.817 16.9737C34.817 16.9464 34.8278 16.9203 34.8471 16.901C34.8664 16.8817 34.8925 16.8709 34.9198 16.8709C34.9339 16.8698 34.9481 16.8716 34.9615 16.8763C34.9749 16.881 34.9872 16.8884 34.9976 16.8981C35.008 16.9077 35.0163 16.9194 35.0219 16.9324C35.0276 16.9454 35.0305 16.9595 35.0304 16.9737C35.0305 16.9879 35.0276 17.0019 35.0219 17.0149C35.0163 17.0279 35.008 17.0396 34.9976 17.0493C34.9872 17.0589 34.9749 17.0663 34.9615 17.071C34.9481 17.0757 34.9339 17.0775 34.9198 17.0764C34.8925 17.0764 34.8664 17.0656 34.8471 17.0463C34.8278 17.0271 34.817 17.0009 34.817 16.9737ZM34.5482 16.3887C34.5482 16.3254 34.6905 16.27 34.8644 16.27C35.0383 16.27 35.1807 16.3254 35.1807 16.3887C35.1807 16.4519 35.0383 16.5151 34.8644 16.5151C34.6905 16.5151 34.5482 16.4598 34.5482 16.3887ZM56.8899 21.5511C56.8899 21.4246 56.8899 21.3298 56.9689 21.3298C57.048 21.3298 57.0401 21.4246 57.0401 21.5511C57.0401 21.6776 57.0401 21.7725 56.9689 21.7725C56.8978 21.7725 56.8899 21.6776 56.8899 21.5511ZM57.1903 21.3851C57.1903 21.3851 57.2931 21.3298 57.4117 21.3298C57.5302 21.3298 57.6409 21.3297 57.6409 21.3851C57.6409 21.4404 57.5382 21.4483 57.4117 21.4483C57.2852 21.4483 57.1903 21.4167 57.1903 21.3693V21.3851ZM57.1903 20.7289C57.1903 20.5155 57.2298 20.3415 57.2773 20.3415C57.3247 20.3415 57.3721 20.5155 57.3721 20.7289C57.3721 20.9424 57.3326 21.1163 57.2773 21.1163C57.2219 21.1163 57.1587 20.9424 57.1587 20.7289H57.1903ZM57.2773 19.9937C57.2773 19.9383 57.3642 19.8909 57.4749 19.8909C57.5856 19.8909 57.6726 19.9383 57.6726 19.9937C57.6726 20.049 57.5856 20.1043 57.4749 20.1043C57.3642 20.1043 57.2456 20.0569 57.2456 19.9937H57.2773ZM57.5619 18.5785C57.6726 18.3256 57.8228 18.1437 57.8939 18.1674C57.9651 18.1912 57.8939 18.4362 57.8069 18.6892C57.72 18.9422 57.5461 19.1319 57.4749 19.1003C57.4038 19.0687 57.4196 18.8394 57.5461 18.5785H57.5619ZM43.8533 12.5464C43.8533 12.4041 43.9244 12.2934 44.0035 12.2934C44.0825 12.2934 44.1537 12.4041 44.1537 12.5464C44.1537 12.6887 44.0904 12.7994 44.0035 12.7994C43.9165 12.7994 43.8217 12.6729 43.8217 12.5464H43.8533ZM46.8417 13.337L47.0788 13.424H46.8733L46.8417 13.337ZM43.1655 12.6255C43.1655 12.5982 43.1763 12.5721 43.1956 12.5528C43.2149 12.5336 43.241 12.5227 43.2683 12.5227C43.2955 12.5227 43.3216 12.5336 43.3409 12.5528C43.3602 12.5721 43.371 12.5982 43.371 12.6255C43.371 12.6528 43.3602 12.6789 43.3409 12.6982C43.3216 12.7174 43.2955 12.7283 43.2683 12.7283C43.2558 12.7335 43.2424 12.7361 43.2289 12.7362C43.2154 12.7362 43.2021 12.7336 43.1896 12.7284C43.1771 12.7233 43.1658 12.7158 43.1562 12.7062C43.1466 12.6967 43.139 12.6854 43.1339 12.6729L43.1655 12.6255ZM49.2608 12.2539L49.4189 12.5227C49.4189 12.5227 49.2924 12.4041 49.0236 12.6808C48.7548 12.9575 49.6877 13.424 49.8142 13.0919C49.8567 12.8149 49.7916 12.5321 49.6324 12.3014C49.6176 12.2006 49.5761 12.1056 49.5121 12.0263C49.4482 11.9471 49.3641 11.8864 49.2687 11.8507C48.9367 11.7242 49.332 11.4317 49.4822 11.6452C49.6324 11.8586 49.7826 11.6452 49.7826 11.6452C49.7826 11.6452 49.9091 10.9574 49.3952 11.2894C48.8813 11.6215 48.9762 10.989 48.7944 11.5819C48.6125 12.1749 49.2292 12.2618 49.2292 12.2618L49.2608 12.2539ZM52.7394 7.92156C54.9842 9.20373 56.7161 11.2233 57.6409 13.6374C57.5823 13.7193 57.5508 13.8174 57.5508 13.9181C57.5508 14.0188 57.5823 14.1169 57.6409 14.1987C57.8465 14.4675 57.7121 14.9182 57.554 14.768C57.3958 14.6177 57.4907 14.1987 57.4907 14.1987C57.4907 14.1987 57.2298 14.1987 57.2852 13.7481C57.3405 13.2975 57.1982 14.0011 57.0796 13.843C56.9818 13.7049 56.8996 13.5564 56.8345 13.4003C56.8345 13.4003 56.5657 13.93 56.8345 13.9853C57.1033 14.0406 57.2061 14.1118 57.1587 14.3569C57.1112 14.6019 56.9848 14.4438 57.2535 14.8945C57.5223 15.3451 57.4749 16.0171 57.0796 16.1436C56.6843 16.2701 57.3168 16.3966 56.9847 16.5072C56.6527 16.6179 56.4076 16.4045 56.4076 16.5863C56.4076 16.7681 56.795 16.7681 56.6764 17.1002C56.5578 17.4322 56.3286 17.0369 56.3286 17.0369C56.3286 17.0369 56.4076 16.531 56.2337 16.5863C56.0598 16.6416 56.1072 17.3057 56.4393 17.5429C56.7713 17.7801 56.5974 18.5548 56.3286 18.5074C56.0598 18.46 56.1546 18.7208 56.1704 18.7683C56.0856 18.4791 55.9431 18.2102 55.7514 17.9777C55.5459 17.8275 55.8384 18.6971 55.6882 18.6339C55.538 18.5706 55.8147 19.0213 55.8147 19.0213L55.9017 19.6221C55.9017 19.6221 56.2337 20.1992 56.0282 20.136C55.8822 20.0258 55.767 19.8799 55.6936 19.7124C55.6203 19.5449 55.5912 19.3614 55.6091 19.1794C55.6724 18.8473 55.1506 18.7604 55.451 18.3888C55.7515 18.0172 55.0716 17.6377 55.372 17.3373C55.6724 17.0369 55.0715 17.195 55.0715 17.4322C55.0715 17.6694 55.0083 16.7681 54.7949 16.5863C54.5814 16.4045 54.7 16.025 54.7 16.025C54.7 16.025 54.3284 16.4993 54.1703 16.3175C54.0122 16.1356 54.0754 16.7997 53.8066 17.0369C53.5378 17.2741 53.5062 17.2899 53.5695 17.6378C53.5964 17.9196 53.5695 18.2039 53.4904 18.4758C53.4904 18.4758 53.7592 18.2149 53.7592 18.626C53.7592 19.0371 53.8383 19.5509 53.6643 19.2821C53.5337 19.0344 53.443 18.7676 53.3955 18.4916C53.3955 18.4916 53.3955 18.9659 53.269 18.9106C53.1425 18.8553 53.1821 18.2544 53.1821 18.2544C53.1821 18.2544 52.7077 18.2544 52.7394 17.4243C52.771 16.5942 52.1306 16.9737 52.3757 16.2305C52.3757 16.2305 51.9251 16.2305 51.9251 15.7167C51.9251 15.2028 51.5693 15.519 51.5377 15.3055C51.506 15.0921 51.0791 15.7404 50.6364 15.3055C50.1937 14.8707 50.3992 14.8075 50.0119 14.9498C49.6245 15.0921 49.5454 14.3015 49.3873 14.2383C49.2292 14.175 49.1501 14.3806 49.1501 14.3806L49.3873 14.8075C49.3873 14.8075 49.4427 14.5229 49.5059 14.6177C49.5315 14.7483 49.5315 14.8825 49.5059 15.013L49.7826 15.432C49.7826 15.432 50.1621 15.3767 50.1937 15.2265C50.2253 15.0763 50.4072 15.2265 50.4072 15.2265C50.4072 15.2265 50.9843 15.6376 50.8024 15.8194C50.6206 16.0013 50.8024 16.3807 50.4072 16.7444C50.1949 16.9521 49.9418 17.1137 49.664 17.2187C49.664 17.2187 49.2055 17.6457 49.0632 17.5824C48.9156 17.5039 48.789 17.3912 48.6941 17.2536C48.5991 17.116 48.5386 16.9577 48.5177 16.7918C48.5177 16.4044 47.8694 15.8827 47.8694 15.5585C47.8694 15.2344 47.5295 14.8391 47.5295 14.6652C47.5295 14.4913 47.3476 14.5861 47.2923 14.4596C47.2369 14.3332 47.3555 14.9024 47.3555 14.9024L48.1461 16.61C48.1461 16.61 48.2884 17.361 48.5256 17.361C48.7628 17.361 48.8655 17.5034 48.8655 17.7168C48.8655 17.9303 48.6837 18.0489 49.3399 17.8117C49.996 17.5745 50.2016 17.6219 49.9644 18.1595C49.7362 18.5548 49.5583 18.9771 49.4347 19.4165C49.4901 19.5668 48.9604 19.5668 48.8972 19.8988C48.8339 20.2309 48.4781 20.9187 48.3833 20.887C48.2884 20.8554 48.3833 21.393 48.5256 21.5432C48.6679 21.6934 48.9446 22.0175 48.8023 22.2626C48.66 22.5077 48.8497 22.7053 48.5572 22.9504C48.2647 23.1955 47.9564 23.1876 48.1145 23.488C48.2726 23.7884 48.3517 23.907 48.1145 23.9703C47.8773 24.0335 48.1145 24.2232 47.9959 24.3497C47.7876 24.5566 47.5657 24.7494 47.3318 24.9269C47.3318 24.9269 46.9286 25.0375 46.7705 24.9269C46.6124 24.8162 46.4464 25.2589 46.3278 24.9901C46.2092 24.7213 46.2013 24.4841 45.9878 24.3339C45.7744 24.1837 45.4819 24.1126 45.5135 23.7568C45.5451 23.401 44.7941 22.9662 44.7624 22.3891C44.7308 21.812 45.0312 22.065 44.8257 21.4246C44.6201 20.7843 44.6201 20.634 44.383 20.4364C44.1458 20.2388 43.8375 20.6498 44.1063 19.4798C44.3751 18.3097 43.7742 19.0687 43.7742 19.0687C43.7742 19.0687 43.6319 19.2031 43.3947 18.8473C43.1576 18.4916 43.118 18.6102 42.8492 18.705C42.5805 18.7999 42.4223 19.1636 42.0982 18.8315C41.7741 18.4995 41.782 19.1161 41.782 19.1161C41.782 19.1161 41.0783 18.6102 41.1732 18.4283C41.2681 18.2465 41.3234 18.1279 40.9044 17.9224C40.4854 17.7168 40.4696 17.5666 40.5487 17.361C40.6277 17.1555 40.3115 17.0685 40.5487 16.7049C40.7858 16.3412 40.4222 15.9143 40.7305 15.4953C41.0388 15.0763 40.936 14.7047 41.4104 14.5703C41.8847 14.4359 41.4104 14.4596 41.4104 14.4596C41.4104 14.4596 41.6239 13.503 42.035 13.4714C42.4461 13.4398 41.7978 13.2026 41.7978 13.2026C41.7352 13.1249 41.6948 13.0317 41.6809 12.9328C41.667 12.834 41.6801 12.7333 41.7187 12.6413C41.861 12.3646 41.5764 11.9219 42.0033 11.9219C42.4302 11.9219 42.6595 12.2223 42.7544 11.9219C42.8492 11.6215 42.8413 11.2025 42.454 11.3448C42.0666 11.4871 42.8176 10.7281 43.1022 10.8625C42.9455 10.7653 42.7707 10.7007 42.5884 10.6728C42.5409 10.7518 42.5014 10.7914 42.5172 10.7281C42.5182 10.7198 42.5208 10.7117 42.5249 10.7044C42.529 10.6971 42.5346 10.6907 42.5412 10.6855C42.5478 10.6804 42.5554 10.6766 42.5635 10.6744C42.5716 10.6722 42.58 10.6717 42.5884 10.6728C42.6604 10.5604 42.7264 10.4443 42.786 10.3249L42.454 10.238C42.454 10.238 42.6753 10.57 42.1931 10.8072C41.7108 11.0444 41.8294 10.3249 41.8294 10.3249C41.8294 10.3249 42.367 10.2696 42.367 10.1194C42.367 9.96915 42.4935 9.8901 42.6437 9.73199C42.7939 9.57387 43.2129 9.48691 43.1497 9.85057C43.1235 10.0944 43.1883 10.3393 43.3315 10.5384C43.3315 10.5384 43.6952 10.5384 43.8058 10.3882C43.9165 10.2379 44.2248 10.2143 44.2248 10.2143C44.2248 10.2143 44.0983 9.89802 44.2248 9.81896C44.2535 9.79856 44.2867 9.78554 44.3216 9.78106C44.3564 9.77659 44.3919 9.78078 44.4247 9.79329C44.4576 9.80581 44.4868 9.82625 44.5099 9.85279C44.533 9.87933 44.5491 9.91115 44.5569 9.94544C44.6098 10.0704 44.691 10.1813 44.7941 10.2696L45.2131 10.0561L45.6558 9.94544C45.6558 9.94544 45.6083 9.58969 45.7823 9.49483C45.9562 9.39996 46.4543 9.03627 46.5729 9.30507C46.6914 9.57387 46.8179 8.63309 46.5729 8.72005C46.3278 8.80702 46.4622 9.00467 46.1301 9.09954C45.7981 9.19441 45.7428 8.92561 45.7428 8.92561L46.1618 8.56984C46.1618 8.56984 46.0353 8.34057 45.8297 8.56984C45.6242 8.79911 45.4423 8.74376 45.4107 8.95722C45.3791 9.17067 45.6004 9.33669 45.3 9.39994C45.2122 9.41974 45.1338 9.46894 45.0777 9.53939C45.0216 9.60983 44.9913 9.69731 44.9917 9.78733C44.9917 9.78733 44.549 9.78732 44.4857 9.55015C44.4225 9.31297 44.5648 9.0679 44.2169 9.3367C43.8691 9.6055 43.624 9.58178 43.7663 9.3367C43.9697 9.11332 44.2139 8.93086 44.4857 8.79911C44.5806 8.79911 44.8731 8.74378 44.8731 8.5066C44.8888 8.41991 44.9222 8.33738 44.9712 8.26418C45.0203 8.19099 45.0839 8.1287 45.1581 8.08121C45.2323 8.03372 45.3155 8.00204 45.4025 7.98818C45.4895 7.97431 45.5784 7.97855 45.6637 8.00062C46.0827 8.11131 46.5096 7.6686 46.5096 7.6686C46.406 7.53038 46.2753 7.41469 46.1255 7.32861C45.9757 7.24252 45.81 7.18785 45.6384 7.16787C45.4668 7.1479 45.2929 7.16307 45.1274 7.21246C44.9618 7.26185 44.8081 7.3444 44.6755 7.45512C43.4501 8.17455 43.292 7.60535 43.7189 7.6686C44.1458 7.73184 44.3276 7.36027 44.5648 7.21796C44.802 7.07566 44.5648 6.49854 44.0193 6.94917C43.581 7.21489 43.0566 7.29992 42.5567 7.18633L42.6516 6.91754C43.7989 6.37615 45.0603 6.12114 46.3278 6.17439C47.8372 6.18992 49.3335 6.45711 50.755 6.96497C51.7432 7.20214 50.423 7.29701 50.2411 7.23376C50.0593 7.17052 48.8102 6.90174 48.8102 6.90174C48.8102 6.90174 48.7628 7.34446 48.2331 7.17053C47.6587 7.02129 47.0707 6.93122 46.478 6.90174C47.316 7.01242 46.8575 7.23376 46.6598 7.2812L47.229 7.23376C47.229 7.23376 46.6519 7.92158 46.897 7.73974C47.1421 7.55791 47.4267 7.20216 47.7587 7.47095C48.0908 7.73975 47.5769 7.53419 47.3397 7.73974C47.1025 7.94529 47.1342 7.86622 47.3397 8.04806C47.4908 8.154 47.6692 8.21437 47.8536 8.22198H48.0908L48.3596 8.09549L48.8102 8.25361L49.158 8.15875L49.4031 7.98482C49.4031 7.98482 48.6837 7.98482 48.7469 7.70811C48.8102 7.43141 49.4031 7.77135 49.4585 7.50256C49.5138 7.23376 50.5653 7.92947 51.1345 7.50256C51.7037 7.07565 51.1345 7.67649 51.1345 7.67649L50.3439 7.77135C50.1621 7.77135 49.7194 7.62115 49.751 7.8267C49.8023 7.99437 49.8947 8.14656 50.0198 8.26942C50.0198 8.26942 50.3123 7.88995 50.6443 8.12712C50.9764 8.36429 50.755 7.63696 51.3005 8.00062C51.846 8.36429 51.3717 7.43141 51.7274 7.5579C52.0832 7.6844 51.6642 7.98482 52.1069 8.15875C52.5496 8.33268 52.7077 7.92948 52.7077 7.92948L52.7394 7.92156ZM46.6993 7.39978H46.6282H46.6993ZM42.3828 13.4635C42.6318 13.2869 42.8964 13.1334 43.1734 13.005C43.4106 12.9259 43.8849 13.0603 44.0351 13.005C44.1853 12.9496 44.3434 13.0998 44.3434 13.3449C44.3434 13.59 43.7663 13.8509 44.0667 13.8509C44.3671 13.8509 44.3988 13.5979 44.6438 13.7244C44.8889 13.8509 44.9601 14.2383 45.2052 14.0881C45.4502 13.9379 45.6637 13.5584 45.8376 13.677C46.0115 13.7955 46.2092 14.0248 46.3673 14.0248C46.5254 14.0248 46.8179 14.1434 46.9128 14.0248C47.0077 13.9062 47.7666 14.428 47.5453 13.9141C47.4772 13.7955 47.4338 13.6643 47.4175 13.5285C47.4012 13.3927 47.4124 13.255 47.4504 13.1236L47.1184 13.3054C47.1184 13.3054 46.7863 13.1236 46.6677 13.1552C46.5491 13.1868 46.4068 13.4161 46.3515 13.3054C46.3167 13.2164 46.3167 13.1176 46.3515 13.0287L46.225 12.918L46.2882 12.586L46.3515 12.3488L46.6361 12.2618C46.6361 12.2618 47.2844 11.9772 47.4267 12.1353C47.901 12.5939 48.2173 12.2302 48.2173 12.2302C48.2173 12.2302 47.7666 11.9614 47.9406 11.8982C48.1145 11.8349 48.0591 11.495 47.8852 11.5424C47.7113 11.5898 47.6243 11.7559 47.4978 11.6926C47.3569 11.6645 47.2118 11.6645 47.0709 11.6926L46.897 11.4792L46.6519 11.7559L46.4464 12.1037L46.3357 12.2618L46.2092 12.1037L46.059 12.3488H46.2724L46.059 12.5306L45.8455 12.586L45.9957 12.8548C45.9957 12.8548 45.7823 13.0445 45.8455 13.2184C45.9088 13.3924 45.7269 13.3686 45.7269 13.3686C45.7269 13.3686 45.3158 13.0445 45.5214 12.7757C45.7269 12.5069 45.5688 12.5939 45.4581 12.499C45.3328 12.3846 45.214 12.2632 45.1024 12.1353L44.5648 11.7559L44.6755 12.0563L45.0391 12.3488L45.221 12.4674C45.221 12.4674 45.3317 12.7441 45.221 12.7125C45.1103 12.6808 45.0708 12.6334 45.0391 12.8231C45.031 12.8778 45.0112 12.93 44.9812 12.9763C44.9512 13.0227 44.9117 13.0621 44.8652 13.0919C44.8652 13.0919 44.8652 13.4161 44.7387 13.337C44.6122 13.258 44.6122 13.0445 44.5015 12.9496C44.3909 12.8548 44.4462 12.6571 44.628 12.7757C44.8099 12.8943 44.9285 12.7757 44.8968 12.6176C44.8652 12.4595 44.383 12.6176 44.3592 12.4121C44.3355 12.2065 44.209 12.0247 44.0825 11.993C43.9561 11.9614 43.7821 12.1353 43.7821 12.1353L43.3394 12.2618C43.3394 12.2618 43.4185 12.2618 43.2129 12.4674C43.0074 12.6729 42.9204 12.6888 42.9204 12.8073C42.9204 12.9259 42.8097 12.9259 42.6832 13.0129C42.5862 13.1015 42.5129 13.2129 42.4698 13.337L42.3828 13.4635ZM47.3792 20.2071C47.3792 20.3811 47.4267 20.5233 47.482 20.5233C47.5374 20.5233 47.5927 20.3811 47.5927 20.2071C47.5927 20.0332 47.5453 19.8909 47.482 19.8909C47.4188 19.8909 47.3792 20.0332 47.3792 20.2071ZM57.2456 17.7563C57.2456 17.448 57.3247 17.2029 57.4117 17.2029C57.4986 17.2029 57.5777 17.448 57.5777 17.7563C57.5777 18.0647 57.5065 18.3097 57.4117 18.3097C57.3168 18.3097 57.2456 18.0568 57.2456 17.7563ZM57.2456 16.4519C57.2456 16.3017 57.3089 16.1831 57.38 16.1831C57.4512 16.1831 57.5144 16.3017 57.5144 16.4519C57.5144 16.6021 57.4591 16.7207 57.38 16.7207C57.301 16.7207 57.2773 16.6258 57.2773 16.4519H57.2456ZM57.6963 15.2581C57.6963 15.0921 57.7753 14.9577 57.8781 14.9577C57.9809 14.9577 58.052 15.0921 58.052 15.2581C58.052 15.4241 57.973 15.5585 57.8781 15.5585C57.7832 15.5585 57.7279 15.4241 57.7279 15.2581H57.6963ZM57.4591 21.7725V21.5353L57.6646 21.7171C57.6646 21.7171 57.8781 21.7171 57.6093 22.0413C57.3405 22.3654 57.7279 22.4919 57.7279 22.4919C57.4899 23.167 57.1685 23.8096 56.7713 24.4051C56.7713 24.4051 56.3207 24.3497 56.2574 24.7055C56.1942 25.0613 55.8384 25.0376 55.5696 25.0376C55.3008 25.0376 55.8384 24.5553 55.8384 24.5553C55.7863 24.3081 55.8316 24.0504 55.9649 23.8359C55.9514 23.7244 55.9619 23.6113 55.9955 23.5041C56.0292 23.397 56.0852 23.2982 56.16 23.2144C56.2348 23.1307 56.3266 23.0638 56.4293 23.0183C56.532 22.9727 56.6432 22.9496 56.7555 22.9504L56.9689 22.5314C56.9689 22.5314 57.0559 22.5314 57.1745 22.1994C57.2931 21.8673 57.4117 22.1994 57.4117 22.1994L57.4591 21.7725ZM56.5341 19.7881C56.5341 19.7881 56.7397 19.9621 56.6843 19.5747C56.629 19.1873 57.0085 18.7841 57.1271 19.0371C57.2456 19.29 57.2219 19.3375 57.2219 19.3375C57.2219 19.3375 56.9531 19.5747 57.1033 19.6695C57.2535 19.7644 56.9768 20.1755 56.9768 20.5075C56.9768 20.8396 56.7397 20.9503 56.4393 20.5629C56.3602 20.4436 56.3263 20.3 56.3437 20.158C56.3611 20.016 56.4286 19.8848 56.5341 19.7881ZM55.2139 19.2505C55.2139 19.2505 55.4826 19.1319 55.6012 19.8197C55.7198 20.5076 56.1704 20.1123 56.1704 20.4759C56.1704 20.8396 55.9017 21.1637 56.1704 21.2191C56.4392 21.2744 56.8029 20.8001 56.5895 21.4009C56.376 22.0017 55.87 21.3139 55.87 21.3139C55.87 21.3139 56.0835 20.7131 55.87 20.7763C55.7979 20.7853 55.7247 20.777 55.6565 20.7521C55.5882 20.7272 55.5268 20.6864 55.4774 20.6331C55.428 20.5799 55.3919 20.5156 55.3722 20.4456C55.3525 20.3757 55.3497 20.3021 55.3641 20.2308C55.3641 19.8197 55.5143 19.6695 55.3641 19.5747C55.3127 19.5425 55.2714 19.4965 55.2448 19.442C55.2183 19.3875 55.2076 19.3266 55.2139 19.2663V19.2505ZM49.4743 22.6895C49.4743 22.6895 49.7114 21.9701 49.8617 22.1203C50.0119 22.2705 50.1937 22.4761 49.9802 23.0769C49.7668 23.6778 50.0435 23.5276 49.7431 23.9466C49.4427 24.3656 49.3873 24.0968 49.2371 24.0651C49.0869 24.0335 49.1422 23.7015 49.2371 23.4327C49.332 23.1639 48.8497 23.2825 48.9683 22.9899C49.0166 22.8991 49.0899 22.8239 49.1796 22.7735C49.2693 22.723 49.3715 22.6994 49.4743 22.7053V22.6895ZM34.5482 17.1555C34.4964 17.451 34.4964 17.7533 34.5482 18.0488C34.6431 18.3493 34.6431 18.1991 34.9119 18.0488C35.1806 17.8986 34.9672 17.8038 35.0621 17.6536C35.1569 17.5033 35.1806 17.361 35.3309 17.6536C35.4811 17.9461 35.5048 17.954 35.7182 17.7722C35.9317 17.5903 35.7182 17.954 36.0187 18.0726C36.3191 18.1911 36.074 18.6102 36.2875 18.5548C36.5009 18.4995 36.7065 18.5548 36.8804 18.9106C37.0543 19.2664 36.7065 19.5668 37.1255 19.5668C37.5445 19.5668 37.4812 19.8988 37.837 19.8988C38.1928 19.8988 37.837 20.2862 38.4694 20.4048C39.1019 20.5234 38.3825 21.6934 38.3825 21.812C38.3825 21.9306 38.7066 23.3378 38.3192 23.156C38.2778 23.1279 38.2293 23.112 38.1793 23.11C38.1293 23.1081 38.0798 23.12 38.0362 23.1447C37.9927 23.1693 37.9569 23.2057 37.9329 23.2495C37.9088 23.2934 37.8975 23.3432 37.9002 23.3931C38.2007 24.0256 37.8133 23.8754 37.9002 24.1837C37.9872 24.492 37.6868 24.6897 37.6868 24.6897C37.6868 25.3538 37.331 24.7846 37.418 24.9585C37.5049 25.1324 37.1176 25.0534 37.418 25.2036C37.7184 25.3538 37.2441 25.504 37.5998 25.5909C37.9556 25.6779 37.9002 25.9783 38.169 26.1602C38.4378 26.342 39.7502 26.4606 38.5248 26.429C38.1209 26.376 37.7369 26.2222 37.4081 25.9818C37.0793 25.7414 36.8162 25.4221 36.6432 25.0534C35.8526 24.6027 36.3428 24.0335 36.074 23.9149C35.8052 23.7963 36.074 23.409 35.8368 23.0769C35.5997 22.7449 35.8368 22.0571 35.4495 21.8199C35.0621 21.5827 35.2123 21.2507 34.8802 20.9503C34.5482 20.6498 34.5798 19.6695 34.4928 19.4877C34.4059 19.3059 34.7616 19.1319 34.7616 18.6181C34.7677 18.5312 34.7677 18.444 34.7616 18.3572C34.7616 18.3572 34.6984 18.4441 34.5245 18.3572C34.1924 18.0963 34.5482 17.1713 34.5482 17.1713V17.1555ZM37.75 9.94544C37.7593 10.0638 37.7593 10.1828 37.75 10.3012C37.75 10.4751 37.4338 10.404 37.3943 10.3961C37.3547 10.3882 37.5366 10.4514 37.4812 10.6649C37.4259 10.8783 37.1255 10.6649 37.1255 10.6649L36.8567 11.0523C36.8567 11.0523 36.7934 11.6531 37.0306 11.1392C37.2678 10.6253 37.2441 11.0523 37.2441 11.0523C37.2441 11.0523 37.2441 11.2894 37.3943 11.3527C37.5445 11.4159 37.6947 11.3527 37.7184 11.4396C37.7421 11.5266 37.418 11.9456 37.418 11.9456C37.418 11.9456 37.6314 11.7084 37.6947 11.9456C37.7579 12.1828 37.6947 12.4832 37.2757 12.4832C36.8567 12.4832 37.2757 11.9772 37.2757 11.9772C37.2757 11.9772 36.5246 12.3409 36.4851 12.6334C36.4456 12.9259 36.999 12.5781 36.999 12.5781C36.9975 12.8001 36.9096 13.0127 36.7539 13.171C36.4851 13.4714 36.3349 13.4161 36.3349 13.171C36.3349 12.9259 36.0977 13.2659 36.0661 13.59C36.0345 13.9141 35.7103 13.59 35.7103 13.8035C35.7103 14.0169 35.4732 14.1355 35.4732 14.4912C35.4732 14.847 34.9356 15.2344 34.9356 15.2344C34.9356 15.2344 35.0542 16.025 34.7221 16.025H34.5956C34.7747 15.7748 34.8613 15.4702 34.8407 15.1632C34.8407 14.2383 36.0977 13.1315 35.742 13.4003C35.3862 13.6691 35.4415 13.4003 35.4415 13.4003C35.9448 12.0882 36.7459 10.911 37.7816 9.96126L37.75 9.94544ZM41.5448 7.46304L41.4578 7.7002C41.4578 7.7002 41.7582 7.52627 42.0824 7.37606C42.4065 7.22585 42.2958 7.43141 42.2958 7.43141C42.2287 7.5711 42.1095 7.67894 41.9638 7.73183C41.695 7.85042 41.5448 7.94529 41.6634 8.03225C41.782 8.11922 41.4894 8.45125 41.3709 8.56984C41.2523 8.68843 41.1258 8.56985 40.9519 8.33268C40.7779 8.0955 40.77 8.72005 41.1021 8.72005C41.4341 8.72005 40.6514 9.05208 40.4143 9.37622C40.1771 9.70036 40.2324 9.64504 39.8688 9.47111C39.5051 9.29718 39.6632 9.52645 39.3628 9.91383C39.0624 10.3012 38.8885 10.0087 38.8885 10.2459C38.8885 10.483 38.7382 10.7835 38.5564 10.7202C38.3746 10.657 38.5564 10.3961 38.3192 10.7202C38.0821 11.0443 38.2007 10.5463 38.1058 10.2459C38.0109 9.94544 38.3746 10.064 38.3746 10.064C38.3764 10.0417 38.3729 10.0193 38.3644 9.99856C38.356 9.97784 38.3427 9.9594 38.3258 9.94476C38.3088 9.93012 38.2887 9.91969 38.2669 9.91431C38.2452 9.90894 38.2225 9.90878 38.2007 9.91383C38.0188 9.91383 38.2007 9.64504 38.2007 9.64504C39.1891 8.74458 40.3189 8.01274 41.5448 7.47884V7.46304ZM41.8136 29.3541C41.8136 29.3541 42.8334 29.2355 42.9836 29.5675C43.1339 29.8996 43.5845 29.5675 44.0035 29.6861C44.4225 29.8047 44.0035 29.2671 44.3276 29.3541C44.6518 29.4411 44.628 29.0537 44.628 29.0537L45.1103 29.4173C45.1103 29.4173 44.4225 29.5043 44.5411 29.6861C44.6597 29.868 45.1973 29.8047 45.7665 29.9549C46.3357 30.1051 46.4859 29.8047 46.4859 29.8047C46.4859 29.8047 46.391 29.4173 45.8218 29.6861C45.2526 29.9549 45.4344 29.2039 45.4344 29.2039C45.4344 29.2039 47.1737 28.6979 46.81 29.2988C46.6756 29.5201 46.9207 29.5913 47.2765 29.5913C47.2228 29.4377 47.2228 29.2705 47.2765 29.1169C47.482 28.2789 47.8141 28.1603 48.1461 28.2236C48.4781 28.2868 47.8457 29.0141 48.1461 29.0537C48.2934 29.064 48.4315 29.1288 48.5335 29.2355L48.0829 29.5043C48.4702 29.4411 48.8023 29.3699 48.8023 29.3699L48.6521 28.7691C48.7581 28.4653 48.8795 28.1671 49.0157 27.8757C49.2213 27.4251 49.2529 28.2078 49.1027 28.3817C48.9525 28.5556 49.4031 28.9193 49.4031 28.9193C49.6238 28.7105 49.8971 28.5657 50.1937 28.5003C50.7313 28.3501 50.4309 28.7453 50.4309 28.7453C50.1393 28.8068 49.8676 28.94 49.6403 29.1327C49.4826 29.3218 49.3522 29.532 49.2529 29.7573C49.2529 29.7573 50.5099 29.5517 49.8221 29.5517C49.1343 29.5517 51.1345 28.7612 51.1345 28.7612C51.1345 28.7612 51.6721 28.437 51.6167 28.7612C51.5614 29.0853 50.6918 29.2671 50.6918 29.2671C50.7335 29.3189 50.7878 29.3591 50.8496 29.3837C50.9113 29.4084 50.9784 29.4168 51.0443 29.4081C51.1102 29.3994 51.1728 29.3738 51.226 29.3339C51.2791 29.294 51.3211 29.241 51.3479 29.1802C51.6484 28.6979 53.3244 28.3105 53.3244 28.3105C51.4642 29.5739 49.2863 30.289 47.0393 30.3739C43.5212 30.3898 41.8136 29.3699 41.8136 29.3699V29.3541Z" fill="white"/>
</g>
<defs>
<clipPath id="clip0_7539_21973">
<rect width="83.5955" height="100" fill="white"/>
</clipPath>
</defs>
</svg>
