<svg width="194" height="110" viewBox="0 0 194 110" fill="none" xmlns="http://www.w3.org/2000/svg">
<g clip-path="url(#clip0_7539_22109)">
<path d="M109.347 10.0022C113.398 9.91305 117.427 10.632 121.204 12.1179C124.981 13.6039 128.431 15.8278 131.358 18.6626C134.284 21.4974 136.63 24.8876 138.261 28.6395C139.892 32.3914 140.777 36.4315 140.864 40.5292C140.864 41.3097 140.864 42.0782 140.822 42.8406C142.897 43.0063 144.916 43.5993 146.757 44.5833L150.753 40.3477L142.036 31.8037L144.86 19.8592L133.074 16.8821L129.628 5.10094L117.95 8.47131L109.132 0L100.684 8.85253L88.8743 5.99044L86.0625 17.3783C87.2089 17.3881 88.3454 17.5926 89.4247 17.9834C94.904 12.9923 101.975 10.1597 109.347 10.0022Z" fill="white"/>
<path d="M100.867 102.352C101.635 102.494 102.418 102.53 103.195 102.461C104.706 102.354 106.141 101.747 107.278 100.735C108.415 99.7225 109.192 98.3601 109.488 96.8575C109.624 95.697 109.668 94.5275 109.62 93.36V90.3345C109.62 89.7294 109.62 89.7294 109.058 89.7294H105.396C104.678 89.7294 104.768 89.681 104.768 90.3345C104.768 92.1498 104.768 93.9651 104.768 95.7804C104.775 96.3373 104.58 96.8775 104.221 97.2997C103.862 97.7219 103.363 97.9971 102.818 98.0737C102.27 98.1835 101.701 98.0833 101.222 97.7925C100.744 97.5017 100.389 97.0411 100.227 96.5004C100.104 96.1095 100.048 95.7003 100.06 95.2902C100.06 93.5839 100.06 91.8715 100.06 90.1651C100.06 89.8081 99.9939 89.6689 99.599 89.675C98.2868 89.6992 96.9727 89.6992 95.6565 89.675C95.2975 89.675 95.1958 89.7779 95.1958 90.1349C95.1958 91.7928 95.1958 93.4447 95.1958 95.0966C95.1209 96.8572 95.6968 98.5828 96.8111 99.9374C96.9368 100.089 96.9727 100.185 96.8111 100.325C96.3237 100.678 95.913 101.129 95.6044 101.65C95.2957 102.17 95.0956 102.749 95.0163 103.35C94.8445 104.102 94.8743 104.886 95.1025 105.622C95.3307 106.358 95.7491 107.02 96.3145 107.537C97.204 108.303 98.3487 108.697 99.5153 108.639C100.712 108.639 101.908 108.639 103.141 108.639C103.486 108.605 103.833 108.689 104.126 108.878C104.418 109.066 104.64 109.349 104.756 109.679C104.777 109.756 104.825 109.823 104.891 109.866C104.958 109.91 105.037 109.927 105.115 109.915H109.339C109.59 109.915 109.668 109.825 109.662 109.583C109.56 106.509 107.664 104.246 104.601 103.871C103.344 103.719 102.076 103.816 100.813 103.786C100.703 103.795 100.592 103.778 100.489 103.735C100.386 103.692 100.295 103.624 100.224 103.538C100.152 103.452 100.102 103.35 100.078 103.241C100.054 103.131 100.055 103.017 100.084 102.908C100.093 102.817 100.122 102.729 100.167 102.65C100.213 102.57 100.276 102.502 100.35 102.449C100.424 102.397 100.509 102.361 100.598 102.344C100.687 102.327 100.779 102.33 100.867 102.352Z" fill="white"/>
<path d="M93.1209 99.9979C93.1209 98.7877 93.1568 97.5776 93.1209 96.3674C93.0739 94.7658 92.4872 93.2286 91.4578 92.0107C90.7348 91.155 89.8249 90.4811 88.8001 90.0422C87.7753 89.6032 86.6636 89.4112 85.5529 89.4814C84.57 89.4724 83.5956 89.6664 82.6893 90.0513C81.7831 90.4363 80.9639 91.0042 80.2821 91.7203C77.8352 94.2798 77.7874 98.6909 79.5762 101.402C80.1793 102.441 81.0737 103.276 82.1461 103.8C83.2186 104.325 84.421 104.516 85.6008 104.349C86.4753 104.237 87.3029 103.885 87.9938 103.332C88.0656 103.278 88.1314 103.175 88.2331 103.217C88.3348 103.259 88.287 103.38 88.299 103.471C88.308 103.552 88.308 103.633 88.299 103.713C88.2451 104.064 88.4007 104.143 88.7297 104.137C90.0579 104.137 91.386 104.137 92.7141 104.137C93.109 104.137 93.1748 104.004 93.1748 103.653C93.115 102.461 93.1209 101.232 93.1209 99.9979ZM85.6905 99.5441C85.354 99.5568 85.0184 99.4992 84.705 99.3747C84.3915 99.2503 84.1069 99.0618 83.8688 98.821C83.6307 98.5802 83.4444 98.2922 83.3213 97.9752C83.1983 97.6581 83.1412 97.3189 83.1538 96.9785C83.1399 96.6377 83.195 96.2976 83.3159 95.9791C83.4369 95.6607 83.6211 95.3706 83.8571 95.1268C84.0931 94.8831 84.3758 94.6908 84.688 94.5617C85.0003 94.4327 85.3353 94.3697 85.6725 94.3766C86.0129 94.3623 86.3526 94.4191 86.6702 94.5436C86.9879 94.6681 87.2767 94.8574 87.5187 95.0999C87.7607 95.3424 87.9507 95.6328 88.0767 95.9529C88.2027 96.273 88.262 96.616 88.2511 96.9604C88.2674 97.3045 88.2122 97.6484 88.0892 97.9697C87.9662 98.291 87.7782 98.5828 87.537 98.8262C87.2958 99.0695 87.0068 99.2591 86.6888 99.3828C86.3708 99.5064 86.0307 99.5614 85.6905 99.5441V99.5441Z" fill="white"/>
<path d="M80.4594 84.4468C80.6988 84.005 80.6928 83.999 80.1962 83.999C78.6766 83.999 77.157 83.999 75.6434 83.999C75.4873 83.9797 75.3294 84.0131 75.1941 84.0941C75.0588 84.1751 74.9538 84.2991 74.8955 84.4468C73.7469 86.6614 72.5744 88.87 71.4017 91.1028C71.3419 91.2117 71.3179 91.4054 71.1803 91.4114C71.0427 91.4175 70.9889 91.2057 70.9231 91.0847C69.7266 88.8337 68.5301 86.5888 67.3694 84.3379C67.3272 84.2331 67.2523 84.1452 67.1562 84.0873C67.0601 84.0295 66.948 84.0048 66.8369 84.0171C66.2386 84.0171 65.6823 84.0171 65.102 84.0171H62.003C61.7158 84.0171 61.6619 84.1079 61.8115 84.3439C61.8115 84.3863 61.8593 84.4407 61.8892 84.4891C64.1028 88.5917 66.3184 92.6942 68.536 96.7968C68.682 97.0541 68.7544 97.3473 68.7453 97.6439C68.7453 98.6362 68.7453 99.6225 68.7453 100.615C68.7453 101.607 68.7453 102.757 68.7453 103.828C68.7453 104.112 68.8351 104.197 69.1163 104.197C70.4744 104.197 71.8265 104.197 73.1846 104.197C73.5196 104.197 73.6153 104.1 73.6093 103.767C73.6093 102.055 73.6512 100.349 73.6093 98.6423C73.5787 97.6574 73.83 96.6845 74.3332 95.8407C76.3853 92.0468 78.4134 88.2407 80.4594 84.4468Z" fill="white"/>
<path d="M162.309 98.4065C162.362 97.2418 162.286 96.0747 162.082 94.9272C161.697 93.1415 160.631 91.5816 159.115 90.5867C157.599 89.5918 155.757 89.2424 153.987 89.6144C152.531 89.9229 151.211 90.6983 150.225 91.8254C149.239 92.9526 148.639 94.3714 148.513 95.8711C148.298 98.5396 148.471 101.214 148.424 103.883C148.424 104.173 148.585 104.167 148.788 104.167C150.158 104.167 151.528 104.167 152.899 104.167C153.234 104.167 153.323 104.076 153.323 103.737C153.323 101.565 153.323 99.3988 153.323 97.2265C153.313 96.834 153.351 96.4417 153.437 96.0587C153.521 95.6153 153.746 95.2118 154.078 94.9093C154.409 94.6068 154.829 94.4219 155.274 94.3826C155.685 94.3537 156.095 94.4592 156.443 94.6836C156.791 94.908 157.058 95.2394 157.206 95.6291C157.406 96.1198 157.502 96.6475 157.487 97.1781C157.487 99.3726 157.487 101.569 157.487 103.768C157.487 104.052 157.535 104.173 157.858 104.167C159.226 104.167 160.594 104.167 161.962 104.167C162.285 104.167 162.339 104.052 162.333 103.768C162.333 102.521 162.333 101.269 162.333 100.022C162.309 99.4956 162.315 98.9511 162.309 98.4065Z" fill="white"/>
<path d="M136.788 96.1616C135.915 95.7792 135.004 95.4932 134.071 95.3084C133.352 95.1992 132.651 94.9958 131.983 94.7033C131.844 94.649 131.728 94.546 131.656 94.4129C131.585 94.2797 131.563 94.1252 131.595 93.9772C131.648 93.6323 131.906 93.5294 132.193 93.481C132.564 93.4001 132.951 93.4502 133.289 93.6231C133.628 93.796 133.898 94.0812 134.053 94.431C134.137 94.5883 134.209 94.6972 134.406 94.6912H138.714C138.935 94.6912 139.001 94.6004 138.953 94.3886C138.834 93.6298 138.567 92.9024 138.169 92.2481C137.771 91.5939 137.248 91.0258 136.632 90.5766C135.184 89.635 133.448 89.2546 131.744 89.5055C130.636 89.5611 129.563 89.9186 128.639 90.5403C127.961 90.9943 127.422 91.6325 127.086 92.3816C126.75 93.1307 126.629 93.9604 126.737 94.7759C126.898 96.4944 127.933 97.4504 129.453 98.0011C130.558 98.338 131.68 98.6127 132.815 98.824C133.17 98.8938 133.509 99.0314 133.814 99.2294C133.896 99.2812 133.964 99.3522 134.013 99.4364C134.062 99.5206 134.09 99.6155 134.094 99.7129C134.099 99.8104 134.08 99.9076 134.04 99.9962C134 100.085 133.938 100.162 133.862 100.222C133.294 100.633 131.553 100.506 131.218 99.4714C131.128 99.1992 130.99 99.1568 130.745 99.1628H128.735C128.047 99.1628 127.365 99.1628 126.683 99.1628C126.384 99.1628 126.276 99.2173 126.33 99.5441C126.461 100.529 126.877 101.454 127.526 102.2C128.697 103.482 130.315 104.252 132.037 104.349C133.91 104.536 135.711 104.349 137.296 103.181C139.707 101.492 139.522 97.4323 136.788 96.1616Z" fill="white"/>
<path d="M123.799 83.9933C122.483 83.9933 121.167 83.9933 119.851 83.9933C119.551 83.9933 119.426 84.0598 119.426 84.3987C119.426 90.853 119.426 97.3195 119.426 103.798C119.426 104.113 119.533 104.179 119.827 104.179C121.137 104.179 122.453 104.179 123.769 104.179C124.296 104.179 124.296 104.179 124.296 103.647V94.1347C124.296 90.9337 124.296 87.7388 124.296 84.5379C124.308 84.1446 124.23 83.9812 123.799 83.9933Z" fill="white"/>
<path d="M116.166 89.7595C114.838 89.7595 113.504 89.7595 112.176 89.7595C111.823 89.7595 111.721 89.8684 111.727 90.2254C111.727 92.4582 111.727 94.697 111.727 96.9359C111.727 99.1747 111.727 101.486 111.727 103.761C111.727 104.082 111.811 104.185 112.128 104.179C113.476 104.179 114.818 104.179 116.154 104.179C116.507 104.179 116.609 104.094 116.609 103.731C116.609 99.2292 116.609 94.7293 116.609 90.2314C116.609 89.8865 116.531 89.7534 116.166 89.7595Z" fill="white"/>
<path d="M145.991 97.0149C145.991 94.7398 145.991 92.4585 145.991 90.1834C145.991 89.8627 145.901 89.7598 145.578 89.7659C144.22 89.7659 142.868 89.7659 141.51 89.7659C141.211 89.7659 141.121 89.8688 141.121 90.1653C141.121 94.7075 141.121 99.2497 141.121 103.792C141.121 104.101 141.217 104.179 141.516 104.179C142.856 104.179 144.202 104.179 145.542 104.179C145.901 104.179 145.991 104.082 145.991 103.725C145.991 101.493 145.991 99.2538 145.991 97.0149Z" fill="white"/>
<path d="M23.7495 71.1285C23.7495 68.8836 23.7076 66.6448 23.7495 64.4059C23.7495 63.6738 23.5461 63.5044 22.8461 63.5104C18.3412 63.5104 13.8303 63.5104 9.32537 63.5104C8.64335 63.5104 8.36214 63.3833 8.40402 62.627C8.46982 61.4964 8.46982 60.3629 8.40402 59.2324C8.36812 58.4942 8.61941 58.3187 9.31939 58.3248C13.6389 58.355 17.9583 58.3248 22.2838 58.355C22.9718 58.355 23.1452 58.1432 23.1333 57.4716C23.0914 55.2993 23.0854 53.1331 23.1333 50.9608C23.1333 50.2347 22.9418 50.0531 22.2359 50.0531C17.8925 50.0894 13.5432 50.0531 9.19976 50.0834C8.60149 50.0834 8.38608 49.8958 8.41001 49.2725C8.45189 48.1229 8.45787 46.9611 8.41001 45.8114C8.41001 45.1277 8.58945 44.9219 9.27148 44.928C13.8303 44.928 18.3831 44.928 22.9359 44.928C23.5342 44.928 23.7555 44.7949 23.7435 44.1474C23.7076 41.9086 23.7076 39.6677 23.7435 37.4248C23.7435 36.8197 23.5402 36.6382 22.9359 36.6382C15.5613 36.6382 8.18261 36.6382 0.799997 36.6382C0.141904 36.6382 -0.0136311 36.8439 -0.0076484 37.4793C-0.0076484 43.0703 -0.0076484 48.6554 -0.0076484 54.2464C-0.0076484 59.8375 -0.0076484 65.4286 -0.0076484 71.0196C-0.0076484 71.5218 0.0402042 71.7699 0.656419 71.7639C8.13077 71.7397 15.6052 71.7397 23.0795 71.7639C23.6419 71.8183 23.7555 71.6308 23.7495 71.1285Z" fill="white"/>
<path d="M70.8157 71.9336C72.8085 71.5326 74.6654 70.6185 76.207 69.2798C77.7486 67.9411 78.9227 66.2229 79.6162 64.2913C79.9273 63.5107 79.8974 63.4865 79.0179 63.4865C76.5172 63.4865 74.0224 63.4865 71.5216 63.4865C71.0874 63.4707 70.6623 63.6148 70.3251 63.8919C68.1474 65.562 64.8329 64.848 63.6962 62.4821C63.3732 61.8165 63.421 61.7317 64.1569 61.7317H71.8627C74.4113 61.7317 76.9599 61.7317 79.5025 61.7317C80.1666 61.7317 80.382 61.4776 80.394 60.8846C80.394 60.4126 80.4417 59.9407 80.4477 59.4687C80.4477 55.4146 79.1853 51.9232 76.0983 49.2305C74.1431 47.5507 71.7156 46.5347 69.1585 46.326C66.2847 45.9433 63.3657 46.5168 60.8425 47.9598C56.5469 50.5315 54.6444 54.5009 54.6923 59.4566C54.7401 64.1945 56.6128 68.0247 60.7169 70.5056C63.7645 72.3121 67.3951 72.8255 70.8157 71.9336ZM63.6365 56.3827C63.9531 55.5896 64.5024 54.9138 65.2106 54.4464C65.9188 53.9789 66.7517 53.7424 67.5969 53.7687C68.4307 53.7374 69.2541 53.9638 69.9574 54.4178C70.6608 54.8719 71.2106 55.532 71.5336 56.3101C71.7669 56.8728 71.6353 56.9878 71.0669 56.9757C69.9003 56.9394 68.7336 56.9757 67.567 56.9757C66.4004 56.9757 65.2338 56.9757 64.0672 56.9757C63.5826 56.9757 63.4271 56.9152 63.6125 56.3827H63.6365Z" fill="white"/>
<path d="M189.663 49.2608C187.715 47.5758 185.29 46.5553 182.735 46.3443C179.458 45.9135 176.14 46.7145 173.408 48.5952C167.707 52.6009 166.947 60.7576 169.86 65.9191C172.618 70.8022 177.04 72.6356 182.388 72.2181C187.551 71.8066 191.195 69.1381 193.157 64.2429C193.45 63.5108 193.426 63.4866 192.672 63.4866C190.082 63.4866 187.491 63.4866 184.895 63.4866C184.524 63.4868 184.167 63.6246 183.89 63.8738C181.694 65.5681 178.326 64.848 177.213 62.4519C176.92 61.8468 176.968 61.7318 177.662 61.7318H185.368C187.964 61.7318 190.555 61.7318 193.145 61.7318C193.648 61.7318 193.881 61.5684 193.899 61.0662C193.917 60.564 193.977 60.0315 193.977 59.5111C194.036 55.4449 192.75 51.9656 189.663 49.2608ZM184.709 56.9697C183.513 56.9697 182.28 56.9697 181.066 56.9697C179.851 56.9697 178.673 56.9697 177.476 56.9697C177.046 56.9697 176.95 56.8608 177.111 56.4372C177.414 55.6379 177.954 54.9525 178.656 54.4749C179.359 53.9973 180.19 53.7507 181.036 53.7688C181.894 53.7294 182.742 53.9612 183.464 54.4318C184.185 54.9024 184.744 55.5885 185.062 56.3949C185.254 56.8305 185.212 56.9818 184.715 56.9697H184.709Z" fill="white"/>
<path d="M151.757 71.0561C151.757 68.908 151.757 66.7599 151.757 64.6119C151.757 63.0326 151.757 61.4533 151.757 59.874C151.785 58.0547 151.524 56.2427 150.985 54.5068C150.063 51.6609 148.123 49.2662 145.545 47.7929C142.967 46.3196 139.938 45.8741 137.052 46.5437C134.552 47.1174 132.298 48.4832 130.618 50.4421C128.938 52.401 127.92 54.851 127.713 57.4354C127.354 62.0523 127.641 66.6813 127.563 71.3042C127.563 71.8125 127.844 71.7943 128.161 71.7943C130.554 71.7943 132.948 71.7943 135.341 71.7943C135.939 71.7943 136.094 71.6491 136.088 71.05C136.059 67.2561 136.088 63.4561 136.088 59.6561C136.074 58.9719 136.146 58.2885 136.304 57.623C136.453 56.9144 136.809 56.2673 137.325 55.7648C137.841 55.2623 138.494 54.9274 139.199 54.8033C139.873 54.6875 140.565 54.7882 141.179 55.091C141.793 55.3938 142.297 55.8836 142.622 56.4915C143.148 57.4454 143.4 58.5287 143.351 59.6198C143.351 63.438 143.351 67.2621 143.351 71.0863C143.351 71.637 143.507 71.8004 144.057 71.7943C146.397 71.7943 148.73 71.758 151.069 71.7943C151.637 71.8306 151.763 71.6188 151.757 71.0561Z" fill="white"/>
<path d="M28.1293 71.8187C30.4925 71.8187 32.8497 71.7824 35.2069 71.8187C35.8051 71.8187 35.9427 71.6251 35.9367 71.0563C35.9367 67.2805 35.9367 63.5047 35.9367 59.735C35.9234 59.0495 35.9916 58.3648 36.14 57.6958C36.2946 56.9138 36.6995 56.2051 37.292 55.6791C37.8846 55.153 38.632 54.8389 39.4187 54.7853C40.8784 54.6703 42.2006 55.6203 42.8168 57.2057C43.0894 57.9819 43.2172 58.8026 43.1936 59.626C43.1936 63.42 43.1936 67.22 43.1936 71.02C43.1936 71.5827 43.3133 71.7945 43.9175 71.7824C46.2567 71.7461 48.5901 71.7824 50.9293 71.7824C51.4678 71.7824 51.6472 71.6493 51.6352 71.0805C51.6053 68.9082 51.6352 66.7359 51.6352 64.5697C51.6352 62.8694 51.6352 61.169 51.6352 59.4748C51.6518 57.75 51.3848 56.0344 50.8455 54.3981C50.2113 52.5087 49.1235 50.808 47.6796 49.4484C46.2357 48.0888 44.4809 47.1128 42.5723 46.6079C40.6637 46.1029 38.661 46.0849 36.7439 46.5553C34.8267 47.0257 33.055 47.9698 31.5873 49.3032C28.6857 51.9837 27.5011 55.4267 27.4652 59.3175C27.4293 63.2082 27.4652 67.1474 27.4652 71.0623C27.4113 71.6553 27.5729 71.8248 28.1293 71.8187Z" fill="white"/>
<path d="M109.298 46.7375C106.989 46.7375 104.673 46.7738 102.358 46.7375C101.646 46.7375 101.467 46.9372 101.467 47.6512C101.491 55.5779 101.491 63.5046 101.467 71.4313C101.467 72.9743 100.868 73.7004 99.4086 74.1119C99.0188 74.221 98.6165 74.278 98.2121 74.2813C97.7993 74.2813 97.6138 74.4508 97.6437 74.8864C97.6437 77.1979 97.6437 79.5094 97.6437 81.8208C97.6437 82.2202 97.7814 82.3775 98.1763 82.3412C98.8942 82.2807 99.624 82.2625 100.336 82.1657C102.702 81.9476 104.948 81.0111 106.779 79.4791C109.13 77.4036 109.95 74.6686 109.962 71.6129C109.962 67.7463 109.962 63.8737 109.962 60.0072C109.962 55.832 109.962 51.6569 109.962 47.4818C110.016 46.8948 109.848 46.7314 109.298 46.7375Z" fill="white"/>
<path d="M163.675 36.687C161.414 36.687 159.146 36.7233 156.885 36.687C156.203 36.687 156.018 36.8928 156.024 37.5644C156.024 43.1313 156.024 48.6921 156.024 54.2589C156.024 59.8258 156.024 65.4774 156.024 71.0926C156.024 71.6433 156.167 71.8187 156.729 71.8127C159.063 71.8127 161.396 71.7764 163.735 71.8127C164.333 71.8127 164.525 71.6735 164.525 71.0321C164.525 59.854 164.525 48.68 164.525 37.5099C164.537 36.8322 164.292 36.687 163.675 36.687Z" fill="white"/>
<path d="M98.1289 54.1984C98.1289 51.7256 98.1289 49.2488 98.1289 46.7679C98.1289 46.3685 97.9914 46.2354 97.5965 46.2536C96.4778 46.2908 95.3636 46.4163 94.2641 46.6287C88.2814 47.7965 83.7825 52.0262 83.4953 58.5007C83.4056 60.5217 83.4953 62.5548 83.4953 64.5818H83.4414C83.4414 66.7481 83.4414 68.9204 83.4414 71.0866C83.4414 71.6312 83.5731 71.8248 84.1415 71.8188C86.5345 71.8188 88.9276 71.7825 91.2848 71.8188C91.883 71.8188 91.9787 71.6372 91.9727 71.0987C91.9727 67.2564 91.9727 63.414 91.9727 59.5656C91.9283 58.6509 92.1816 57.7467 92.6938 56.9915C93.206 56.2363 93.9488 55.6718 94.8085 55.3844C95.7012 55.0241 96.6479 54.8195 97.6083 54.7794C98.0032 54.7915 98.1289 54.622 98.1289 54.1984Z" fill="white"/>
<path d="M123.149 71.02C123.149 67.1051 123.149 63.1962 123.149 59.2812C123.149 55.3663 123.149 51.415 123.149 47.4698C123.149 46.9313 123.011 46.7255 122.443 46.7316C120.086 46.7316 117.729 46.7316 115.372 46.7316C114.863 46.7316 114.684 46.8647 114.684 47.4093C114.684 55.3279 114.684 63.2466 114.684 71.1653C114.684 71.6614 114.821 71.8127 115.318 71.8067C117.675 71.8067 120.032 71.7704 122.389 71.8067C123.024 71.8309 123.149 71.613 123.149 71.02Z" fill="white"/>
<path d="M114.546 40.6682C114.529 41.2481 114.631 41.8253 114.847 42.3628C115.063 42.9003 115.388 43.3863 115.8 43.79C116.212 44.1937 116.703 44.506 117.241 44.7072C117.779 44.9083 118.352 44.9938 118.925 44.9583C121.521 44.9583 123.25 43.2338 123.256 40.65C123.295 40.0586 123.207 39.4659 123 38.9115C122.793 38.3572 122.47 37.8542 122.055 37.4363C121.64 37.0184 121.14 36.6953 120.591 36.4888C120.042 36.2822 119.455 36.197 118.871 36.2389C118.292 36.2135 117.714 36.3111 117.174 36.5254C116.634 36.7397 116.145 37.066 115.737 37.4833C115.33 37.9006 115.013 38.3996 114.808 38.9481C114.603 39.4966 114.513 40.0826 114.546 40.6682Z" fill="white"/>
<path d="M105.685 36.2391C105.105 36.2091 104.526 36.3031 103.985 36.515C103.444 36.727 102.953 37.052 102.545 37.469C102.137 37.8859 101.82 38.3853 101.616 38.9346C101.411 39.4838 101.324 40.0705 101.359 40.6563C101.359 43.24 103.124 44.9585 105.715 44.9585C108.305 44.9585 110.046 43.24 110.058 40.6623C110.097 40.0713 110.01 39.4787 109.804 38.9243C109.598 38.3698 109.277 37.8664 108.863 37.4475C108.449 37.0287 107.951 36.7042 107.403 36.4958C106.855 36.2874 106.269 36.1999 105.685 36.2391V36.2391Z" fill="white"/>
<path d="M52.122 90.4978C51.3057 90.5309 50.5357 90.8905 49.9815 91.4975C49.4273 92.1046 49.1341 92.9095 49.1665 93.7351C49.2007 94.5602 49.5568 95.3379 50.1566 95.8981C50.7565 96.4583 51.5514 96.7554 52.3673 96.7242C53.183 96.6896 53.952 96.3296 54.5059 95.7229C55.0598 95.1161 55.3535 94.3122 55.3227 93.487C55.2885 92.6619 54.9325 91.8842 54.3327 91.324C53.7328 90.7637 52.9379 90.4667 52.122 90.4978Z" fill="white"/>
<path d="M41.4122 84.7616C40.4372 85.3161 39.72 86.2396 39.4182 87.329C39.1164 88.4184 39.2547 89.5843 39.8029 90.5705C40.0709 91.0622 40.433 91.4952 40.868 91.8441C41.3029 92.1931 41.802 92.451 42.3365 92.6031C42.8709 92.7551 43.4299 92.7981 43.981 92.7297C44.532 92.6612 45.0641 92.4826 45.5463 92.2043C46.5211 91.6496 47.2385 90.7266 47.5414 89.6376C47.8442 88.5486 47.7076 87.3826 47.1616 86.3954C46.6132 85.4078 45.6994 84.681 44.6213 84.3746C43.5432 84.0682 42.3889 84.2074 41.4122 84.7616Z" fill="white"/>
<path d="M36.6689 94.9935C35.1416 95.055 33.7007 95.7265 32.6622 96.8608C31.6237 97.9951 31.0723 99.4996 31.129 101.044C31.1897 102.589 31.8535 104.047 32.975 105.097C34.0965 106.147 35.5842 106.705 37.1116 106.648C38.6389 106.585 40.0794 105.913 41.1185 104.779C42.1577 103.645 42.711 102.142 42.6576 100.597C42.5938 99.052 41.9281 97.5956 40.806 96.5458C39.6839 95.4959 38.1965 94.9378 36.6689 94.9935Z" fill="white"/>
<path d="M16.5795 84.2291C14.7521 85.2695 13.4076 87.0008 12.8412 89.0429C12.2747 91.0849 12.5325 93.2709 13.5582 95.1208C14.0664 96.0371 14.7482 96.8431 15.5645 97.4929C16.3808 98.1427 17.3155 98.6234 18.3155 98.9078C19.3155 99.1921 20.3612 99.2744 21.3926 99.15C22.4241 99.0255 23.4211 98.6968 24.327 98.1826C26.1554 97.1433 27.5013 95.4125 28.0689 93.3703C28.6365 91.3281 28.3794 89.1416 27.3543 87.2909C26.3266 85.44 24.6143 84.0777 22.5937 83.5035C20.5731 82.9293 18.4098 83.1903 16.5795 84.2291Z" fill="white"/>
<path d="M32.5332 17.6144C31.6724 17.6072 30.841 17.297 30.1819 16.7371L30.0742 16.6523V25.281C30.0742 28.494 30.0742 31.7071 30.0742 34.9201C30.0742 35.2953 30.1759 35.3921 30.5409 35.386C31.869 35.386 33.2031 35.386 34.5313 35.386C34.8603 35.386 34.9322 35.2771 34.9322 34.9685C34.9322 28.8813 34.9322 22.792 34.9322 16.7007C34.2667 17.2863 33.4153 17.6106 32.5332 17.6144Z" fill="white"/>
<path d="M30.2733 13.6933C30.9135 14.1835 31.6135 14.5828 32.2357 15.0911C32.5229 15.321 32.5886 15.315 32.8757 15.0911C33.3065 14.7341 33.7552 14.4013 34.2158 14.0867C34.7451 13.7396 35.2243 13.3201 35.6398 12.8402C36.2054 12.2282 36.5364 11.4321 36.5731 10.5953C36.5651 10.2365 36.4832 9.88332 36.3328 9.55828C36.1825 9.23323 35.9668 8.94344 35.6995 8.70736C34.9577 8.05991 33.1331 8.10225 32.6544 9.0704C32.5527 9.27008 32.4271 9.23983 32.3074 9.0704C32.2196 8.92004 32.1013 8.79014 31.9604 8.68919C31.6383 8.46559 31.2639 8.33118 30.8745 8.29934C30.4851 8.26749 30.0942 8.33931 29.7408 8.50767C29.2239 8.76909 28.818 9.21088 28.598 9.75143C28.3781 10.292 28.359 10.8947 28.5443 11.4484C28.8799 12.358 29.4835 13.1416 30.2733 13.6933Z" fill="white"/>
<path d="M54.657 35.3859C55.9971 35.3859 57.3432 35.3859 58.6833 35.3859C59.0124 35.3859 59.12 35.3012 59.12 34.9563C59.12 30.8054 59.12 26.6585 59.12 22.5156C58.4533 23.0936 57.6051 23.4131 56.727 23.4172C55.8647 23.4129 55.0317 23.0999 54.3758 22.5337L54.262 22.4551C54.262 24.3551 54.262 26.2571 54.262 28.1611C54.262 30.4242 54.262 32.6872 54.262 34.9503C54.256 35.2831 54.3339 35.3859 54.657 35.3859Z" fill="white"/>
<path d="M41.5368 39.9122C42.8649 39.9122 44.1932 39.9122 45.5213 39.9122C45.8729 39.8788 46.2254 39.9655 46.5226 40.1585C46.8197 40.3516 47.0444 40.6398 47.1606 40.9771C47.1803 41.048 47.2257 41.1086 47.2879 41.1468C47.3501 41.1849 47.4244 41.1979 47.4956 41.1828H51.7193C51.9586 41.1828 52.0484 41.1102 52.0484 40.8561C52.0714 39.4205 51.5539 38.0297 50.6007 36.9657C49.6476 35.9016 48.33 35.2439 46.9152 35.1258C45.6588 34.9988 44.3966 35.0895 43.1342 35.0532C42.6676 35.0532 42.4282 34.7023 42.4761 34.1819C42.5239 33.6615 42.8052 33.4316 43.2599 33.5224C44.0387 33.6693 44.8338 33.708 45.623 33.6373C47.2861 33.5303 48.8535 32.8138 50.0318 31.622C51.2102 30.4302 51.9186 28.8449 52.0244 27.1628C52.0782 26.2431 52.0244 25.3475 52.0244 24.3975H52.0543C52.0543 23.4112 52.0543 22.4189 52.0543 21.4326C52.0543 21.0695 51.9706 20.9364 51.5877 20.9425C50.3014 20.9425 49.0092 20.9425 47.7229 20.9425C47.1904 20.9425 47.1905 20.9424 47.1905 21.4689C47.1905 23.3265 47.1905 25.1842 47.1905 27.0418C47.1924 27.5916 46.9989 28.1238 46.6453 28.5414C46.2917 28.959 45.8014 29.2343 45.264 29.317C44.7117 29.4346 44.1359 29.3374 43.6513 29.0447C43.1667 28.752 42.8091 28.2853 42.6496 27.7377C42.5286 27.3464 42.474 26.9372 42.4881 26.5275C42.4881 24.7909 42.4881 23.0542 42.4881 21.3237C42.4881 21.0211 42.3984 20.9243 42.0933 20.9243C40.7531 20.9243 39.411 20.9243 38.0669 20.9243C37.708 20.9243 37.6182 21.0332 37.6242 21.3842C37.6242 23.1087 37.6242 24.8272 37.6242 26.5517C37.6184 26.9851 37.6483 27.4182 37.7139 27.8466C37.9071 29.0562 38.422 30.1899 39.2036 31.1262C39.3232 31.2654 39.4429 31.3803 39.2036 31.5437C38.7152 31.8965 38.3038 32.3471 37.9951 32.8676C37.6863 33.3881 37.4867 33.9673 37.4088 34.5692C37.234 35.3302 37.2644 36.1248 37.497 36.8699C37.7296 37.615 38.1557 38.2833 38.7309 38.8048C39.5029 39.5053 40.4998 39.8988 41.5368 39.9122Z" fill="white"/>
<path d="M54.6868 19.2783C55.2851 19.72 55.8835 20.0771 56.4458 20.5309C56.7031 20.7366 56.7629 20.7306 57.0441 20.5309C57.427 20.2162 57.8338 19.9258 58.2406 19.6353C58.7136 19.3224 59.1423 18.9457 59.5149 18.5159C60.0214 17.9683 60.3185 17.2561 60.3525 16.507C60.345 16.1854 60.2708 15.8689 60.1348 15.5781C59.9987 15.2873 59.8039 15.0287 59.5628 14.8188C58.8987 14.2137 57.2654 14.2682 56.8406 15.1395C56.7509 15.321 56.6372 15.2968 56.5295 15.1395C56.4503 15.0059 56.3443 14.8905 56.2184 14.8007C55.9302 14.6006 55.5953 14.4802 55.2468 14.4516C54.8984 14.4229 54.5485 14.4869 54.2321 14.6373C53.7686 14.8702 53.4045 15.2656 53.2075 15.7497C53.0105 16.2339 52.9942 16.7739 53.1614 17.2694C53.4554 18.0808 53.9876 18.7818 54.6868 19.2783Z" fill="white"/>
<path d="M70.2779 35.3859C71.626 35.3859 72.9681 35.3859 74.3043 35.3859C74.6393 35.3859 74.741 35.2952 74.741 34.9563C74.741 30.995 74.741 27.0336 74.741 23.0723C74.0022 23.4923 73.1892 23.7616 72.3479 23.865C71.4873 23.6874 70.657 23.3837 69.8831 22.9634C69.8831 24.6859 69.8831 26.4104 69.8831 28.1369C69.8831 30.4121 69.8831 32.6933 69.8831 34.9684C69.8771 35.2831 69.9549 35.3859 70.2779 35.3859Z" fill="white"/>
<path d="M77.7155 25.2748C77.7155 28.4879 77.7155 31.7009 77.7155 34.914C77.7155 35.2891 77.8172 35.392 78.1881 35.3859C79.5163 35.3859 80.8505 35.3859 82.1787 35.3859C82.4957 35.3859 82.5974 35.2952 82.5914 34.9745C82.5914 34.0124 82.5914 33.0503 82.5914 32.0882C82.5914 31.7554 82.6512 31.6707 82.9623 31.8401C83.591 32.1804 84.1608 32.6219 84.6494 33.1471C85.1857 33.7533 85.6719 34.4029 86.1032 35.0894C86.2049 35.2528 86.3007 35.386 86.5341 35.3799C88.1614 35.3799 89.7826 35.3799 91.4099 35.3799C91.6552 35.3799 91.6791 35.2952 91.5834 35.0955C90.8476 33.4463 89.7847 31.9675 88.4605 30.7509C88.2032 30.527 88.2152 30.4302 88.4605 30.2366C89.1632 29.7704 89.7618 29.1608 90.2182 28.4471C90.6746 27.7334 90.9786 26.9311 91.1108 26.0917C91.3307 25.065 91.1716 23.9924 90.6635 23.0762C90.1555 22.1599 89.3335 21.4634 88.3527 21.1178C87.4868 20.7854 86.5633 20.6338 85.6378 20.6723C84.7124 20.7108 83.8043 20.9385 82.9683 21.3417C82.5435 21.5353 82.5495 21.5414 82.5495 21.0815V15.7507C82.5495 15.2061 82.5496 15.2061 81.9872 15.2061C80.7248 15.2061 79.4624 15.2061 78.2001 15.2061C77.7993 15.2061 77.6797 15.3089 77.6797 15.7264C77.7216 18.9032 77.7155 22.086 77.7155 25.2748ZM82.7111 27.1688C82.948 26.6271 83.3182 26.1558 83.7864 25.7999C84.2545 25.4439 84.805 25.2153 85.3853 25.1356C85.5323 25.1175 85.681 25.1175 85.828 25.1356C86.3365 25.2082 86.4981 25.4624 86.3486 25.9586C86.2679 26.1744 86.1429 26.3706 85.9821 26.5343C85.8213 26.698 85.6281 26.8256 85.4152 26.9086C84.6414 27.2497 83.8117 27.4426 82.9683 27.4774C82.717 27.5076 82.5735 27.4774 82.7111 27.1688Z" fill="white"/>
<path d="M62.5267 35.38C63.8369 35.38 65.1532 35.38 66.4694 35.38C66.8642 35.38 66.9599 35.265 66.9599 34.8778C66.9599 31.6768 66.9599 28.4819 66.9599 25.281C66.9599 22.08 66.9599 18.8549 66.9599 15.6479C66.9599 15.3272 66.8941 15.188 66.5351 15.194C65.195 15.194 63.8549 15.194 62.5148 15.194C62.1618 15.194 62.09 15.3272 62.09 15.6418C62.09 22.0961 62.09 28.5344 62.09 34.9564C62.084 35.3195 62.2336 35.386 62.5267 35.38Z" fill="white"/>
<path d="M70.3316 19.2783C70.9 19.72 71.5281 20.0771 72.0905 20.5309C72.3418 20.7366 72.4076 20.7306 72.6888 20.5309C73.0717 20.2162 73.4725 19.9258 73.8853 19.6353C74.3595 19.324 74.7885 18.9472 75.1597 18.5159C75.668 17.9689 75.967 17.2568 76.0032 16.507C75.9931 16.1859 75.9178 15.8703 75.7819 15.5798C75.6461 15.2894 75.4526 15.0303 75.2135 14.8188C74.5494 14.2137 72.9161 14.2682 72.4853 15.1395C72.3956 15.321 72.2879 15.2968 72.1802 15.1395C72.099 15.0074 71.9935 14.8923 71.8692 14.8007C71.5799 14.6006 71.2438 14.4803 70.8944 14.4517C70.5451 14.423 70.1944 14.487 69.877 14.6373C69.4136 14.8703 69.0499 15.2659 68.8539 15.7503C68.658 16.2347 68.6431 16.7747 68.812 17.2694C69.1013 18.0817 69.6322 18.7834 70.3316 19.2783Z" fill="white"/>
</g>
<defs>
<clipPath id="clip0_7539_22109">
<rect width="194" height="110" fill="white"/>
</clipPath>
</defs>
</svg>
