<svg width="892" height="500" viewBox="0 0 892 500" fill="none" xmlns="http://www.w3.org/2000/svg">
<g clip-path="url(#clip0_7691_21819)">
<path d="M502.695 45.4647C521.32 45.0594 539.843 48.3272 557.206 55.0816C574.568 61.836 590.429 71.9447 603.884 84.8301C617.34 97.7156 628.125 113.125 635.623 130.18C643.122 147.234 647.187 165.598 647.587 184.224C647.587 187.772 647.588 191.265 647.395 194.73C656.935 195.483 666.219 198.179 674.679 202.651L693.052 183.261L652.978 144.425L665.96 90.1316L611.777 76.5995L595.934 23.0486L542.246 38.3685L501.704 -0.137451L462.869 39.9638L408.575 26.9543L395.648 78.7172C400.919 78.7615 406.144 79.6913 411.105 81.4677C436.335 58.8806 468.838 46.1044 502.695 45.4647Z" fill="#FDD200"/>
<path d="M463.722 465.235C467.25 465.88 470.848 466.046 474.421 465.73C481.369 465.243 487.964 462.487 493.192 457.885C498.42 453.283 501.991 447.091 503.355 440.261C503.98 434.986 504.182 429.67 503.96 424.363V410.611C503.96 407.861 503.96 407.861 501.375 407.861H484.542C481.241 407.861 481.655 407.641 481.655 410.611C481.655 418.862 481.655 427.114 481.655 435.365C481.685 437.896 480.791 440.352 479.14 442.271C477.49 444.19 475.196 445.441 472.688 445.789C470.169 446.288 467.555 445.833 465.354 444.511C463.153 443.189 461.522 441.096 460.779 438.638C460.213 436.861 459.952 435.001 460.008 433.137C460.008 425.381 460.008 417.597 460.008 409.841C460.008 408.218 459.706 407.586 457.89 407.613C451.858 407.723 445.817 407.723 439.766 407.613C438.115 407.613 437.648 408.081 437.648 409.704C437.648 417.24 437.648 424.748 437.648 432.257C437.303 440.259 439.951 448.103 445.074 454.26C445.651 454.948 445.816 455.388 445.074 456.021C442.833 457.629 440.945 459.679 439.526 462.044C438.107 464.409 437.187 467.039 436.822 469.773C436.033 473.189 436.169 476.755 437.219 480.101C438.268 483.447 440.191 486.452 442.791 488.806C446.88 492.286 452.142 494.077 457.506 493.812C463.007 493.812 468.507 493.812 474.173 493.812C475.761 493.659 477.355 494.041 478.701 494.898C480.046 495.756 481.067 497.038 481.599 498.542C481.696 498.892 481.917 499.194 482.221 499.391C482.525 499.589 482.891 499.668 483.249 499.615H502.667C503.823 499.615 504.18 499.202 504.153 498.102C503.685 484.13 494.967 473.871 480.884 472.138C475.108 471.451 469.277 471.891 463.474 471.753C462.965 471.796 462.454 471.717 461.982 471.521C461.51 471.325 461.092 471.019 460.763 470.628C460.434 470.237 460.205 469.773 460.092 469.275C459.98 468.777 459.989 468.259 460.118 467.765C460.161 467.35 460.293 466.949 460.504 466.589C460.715 466.228 461.001 465.918 461.343 465.678C461.684 465.438 462.074 465.275 462.484 465.198C462.894 465.122 463.317 465.134 463.722 465.235Z" fill="#7FBA27"/>
<path d="M428.105 454.536C428.105 449.035 428.27 443.534 428.105 438.033C427.889 430.753 425.192 423.766 420.459 418.23C417.135 414.341 412.952 411.277 408.241 409.282C403.529 407.287 398.419 406.414 393.312 406.733C388.793 406.692 384.314 407.574 380.148 409.324C375.981 411.074 372.215 413.655 369.081 416.91C357.831 428.544 357.612 448.595 365.835 461.054C368.608 465.777 372.72 469.571 377.65 471.956C382.581 474.34 388.108 475.208 393.532 474.449C397.553 473.941 401.357 472.343 404.534 469.828C404.864 469.58 405.166 469.113 405.634 469.305C406.102 469.498 405.882 470.048 405.937 470.461C405.978 470.826 405.978 471.195 405.937 471.561C405.689 473.156 406.404 473.514 407.917 473.486C414.023 473.486 420.129 473.486 426.235 473.486C428.05 473.486 428.353 472.881 428.353 471.286C428.078 465.757 428.105 460.146 428.105 454.536ZM393.945 452.473C392.398 452.531 390.855 452.269 389.414 451.703C387.973 451.137 386.665 450.28 385.57 449.186C384.475 448.091 383.619 446.782 383.053 445.341C382.488 443.9 382.225 442.358 382.283 440.811C382.223 439.263 382.48 437.718 383.037 436.273C383.594 434.827 384.441 433.51 385.525 432.403C386.609 431.296 387.907 430.422 389.341 429.834C390.775 429.246 392.313 428.957 393.862 428.984C395.427 428.919 396.989 429.177 398.449 429.743C399.909 430.309 401.237 431.17 402.35 432.272C403.462 433.374 404.336 434.694 404.915 436.149C405.494 437.604 405.767 439.163 405.717 440.729C405.792 442.293 405.538 443.856 404.973 445.316C404.407 446.777 403.543 448.103 402.434 449.209C401.325 450.316 399.996 451.177 398.534 451.739C397.072 452.301 395.509 452.551 393.945 452.473Z" fill="#7FBA27"/>
<path d="M369.904 383.849C371.004 381.842 370.977 381.814 368.694 381.814C361.708 381.814 354.721 381.814 347.763 381.814C347.046 381.726 346.319 381.878 345.697 382.246C345.075 382.615 344.593 383.178 344.325 383.849C339.044 393.916 333.654 403.955 328.263 414.104C327.988 414.599 327.877 415.479 327.245 415.507C326.612 415.534 326.365 414.572 326.062 414.022C320.561 403.79 315.061 393.586 309.725 383.354C309.531 382.878 309.186 382.479 308.745 382.216C308.303 381.953 307.788 381.841 307.277 381.897C304.526 381.897 301.969 381.897 299.301 381.897H285.054C283.733 381.897 283.486 382.309 284.173 383.382C284.173 383.574 284.393 383.822 284.531 384.042C294.707 402.69 304.893 421.338 315.088 439.986C315.759 441.155 316.092 442.488 316.05 443.836C316.05 448.347 316.05 452.83 316.05 457.341C316.05 461.852 316.05 467.077 316.05 471.946C316.05 473.238 316.463 473.623 317.756 473.623C323.999 473.623 330.216 473.623 336.459 473.623C337.999 473.623 338.439 473.183 338.412 471.671C338.412 463.887 338.604 456.131 338.412 448.374C338.275 443.898 339.431 439.477 341.74 435.64C351.174 418.395 360.497 401.095 369.904 383.849Z" fill="#7FBA27"/>
<path d="M746.192 447.329C746.437 442.035 746.086 436.73 745.147 431.514C743.378 423.397 738.477 416.307 731.508 411.785C724.54 407.263 716.068 405.675 707.934 407.366C701.236 408.773 695.169 412.303 690.636 417.431C686.102 422.559 683.343 429.012 682.767 435.832C681.777 447.934 682.575 460.091 682.355 472.221C682.355 473.541 683.097 473.513 684.032 473.513C690.331 473.513 696.63 473.513 702.928 473.513C704.468 473.513 704.881 473.101 704.881 471.56C704.881 461.686 704.881 451.84 704.881 441.966C704.835 440.182 705.011 438.399 705.403 436.658C705.79 434.642 706.825 432.808 708.349 431.433C709.872 430.058 711.803 429.218 713.847 429.039C715.74 428.908 717.624 429.387 719.223 430.407C720.823 431.427 722.052 432.934 722.731 434.705C723.651 436.935 724.091 439.334 724.024 441.746C724.024 451.739 724.024 461.723 724.024 471.698C724.024 472.991 724.244 473.541 725.729 473.513C732.019 473.513 738.308 473.513 744.597 473.513C746.082 473.513 746.33 472.991 746.302 471.698C746.302 466.032 746.302 460.366 746.302 454.673C746.192 452.335 746.22 449.777 746.192 447.329Z" fill="#7FBA27"/>
<path d="M628.858 437.098C624.843 435.372 620.657 434.072 616.371 433.22C613.072 432.768 609.845 431.889 606.772 430.607C606.129 430.36 605.596 429.892 605.268 429.287C604.941 428.682 604.84 427.979 604.984 427.306C605.231 425.739 606.414 425.271 607.734 425.051C609.439 424.683 611.218 424.911 612.775 425.697C614.332 426.483 615.572 427.779 616.288 429.369C616.673 430.084 617.003 430.579 617.911 430.552H637.714C638.732 430.552 639.034 430.139 638.814 429.177C638.266 425.728 637.04 422.421 635.209 419.447C633.377 416.473 630.976 413.891 628.143 411.849C621.478 407.585 613.503 405.858 605.671 406.981C600.588 407.23 595.667 408.845 591.424 411.656C588.306 413.721 585.831 416.621 584.284 420.026C582.737 423.431 582.181 427.203 582.678 430.909C583.421 438.721 588.179 443.066 595.165 445.569C600.245 447.1 605.405 448.349 610.622 449.31C612.256 449.627 613.815 450.252 615.215 451.153C615.591 451.388 615.905 451.711 616.13 452.093C616.354 452.476 616.482 452.907 616.504 453.35C616.525 453.793 616.44 454.235 616.254 454.638C616.068 455.041 615.787 455.393 615.435 455.663C612.823 457.534 604.819 456.956 603.279 452.253C602.866 451.015 602.233 450.823 601.106 450.85H591.864C588.701 450.85 585.566 450.85 582.43 450.85C581.055 450.85 580.56 451.098 580.807 452.583C581.411 457.062 583.325 461.262 586.308 464.657C591.69 470.482 599.128 473.984 607.047 474.421C615.655 475.274 623.934 474.421 631.223 469.113C642.28 461.329 641.427 442.874 628.858 437.098Z" fill="#7FBA27"/>
<path d="M569.144 381.787C563.093 381.787 557.043 381.787 550.992 381.787C549.617 381.787 549.039 382.089 549.039 383.629C549.039 412.967 549.039 442.36 549.039 471.808C549.039 473.238 549.534 473.541 550.882 473.541C556.905 473.541 562.956 473.541 569.007 473.541C571.428 473.541 571.427 473.541 571.427 471.12V427.856C571.427 413.306 571.427 398.784 571.427 384.234C571.482 382.474 571.124 381.732 569.144 381.787Z" fill="#7FBA27"/>
<path d="M534.05 407.998C527.944 407.998 521.811 407.998 515.705 407.998C514.082 407.998 513.614 408.494 513.642 410.116C513.642 420.265 513.642 430.442 513.642 440.618C513.642 450.795 513.642 461.302 513.642 471.643C513.642 473.101 514.027 473.569 515.484 473.541C521.682 473.541 527.852 473.541 533.995 473.541C535.617 473.541 536.085 473.156 536.085 471.506C536.085 451.043 536.085 430.589 536.085 410.144C536.085 408.576 535.727 407.971 534.05 407.998Z" fill="#7FBA27"/>
<path d="M671.158 440.976C671.158 430.634 671.158 420.265 671.158 409.924C671.158 408.466 670.745 407.998 669.26 408.026C663.017 408.026 656.801 408.026 650.557 408.026C649.182 408.026 648.77 408.493 648.77 409.841C648.77 430.488 648.77 451.134 648.77 471.781C648.77 473.183 649.209 473.541 650.585 473.541C656.746 473.541 662.934 473.541 669.095 473.541C670.745 473.541 671.158 473.101 671.158 471.478C671.158 461.329 671.158 451.152 671.158 440.976Z" fill="#7FBA27"/>
<path d="M109.193 323.313C109.193 313.109 109 302.932 109.193 292.755C109.193 289.427 108.258 288.657 105.04 288.685C84.3289 288.685 63.591 288.685 42.8803 288.685C39.7448 288.685 38.452 288.107 38.6446 284.669C38.9471 279.53 38.9471 274.378 38.6446 269.239C38.4795 265.884 39.6348 265.086 42.8528 265.113C62.7109 265.113 82.5687 265.113 102.454 265.113C105.617 265.113 106.415 264.151 106.36 261.098C106.167 251.251 106.14 241.377 106.36 231.503C106.36 228.203 105.48 227.378 102.234 227.378C82.266 227.543 62.271 227.378 42.3029 227.515C39.5524 227.515 38.5621 226.663 38.6721 223.857C38.8646 218.604 38.8921 213.323 38.6721 208.097C38.6721 204.989 39.4971 204.054 42.6326 204.082C63.5908 204.082 84.5218 204.082 105.453 204.082C108.203 204.082 109.22 203.476 109.165 200.534C109 190.357 109 180.171 109.165 169.976C109.165 167.088 108.23 166.401 105.453 166.401C71.5489 166.401 37.6267 166.401 3.68642 166.401C0.66095 166.401 -0.0540936 167.336 -0.0265894 170.224C-0.0265894 195.638 -0.0265894 221.024 -0.0265894 246.438C-0.0265894 271.852 -0.0265894 297.266 -0.0265894 322.68C-0.0265894 324.963 0.193405 326.091 3.02634 326.063C37.3883 325.953 71.7506 325.953 106.113 326.063C108.698 326.448 109.22 325.595 109.193 323.313Z" fill="#7FBA27"/>
<path d="M325.57 326.971C334.731 325.148 343.268 320.993 350.355 314.908C357.443 308.823 362.841 301.013 366.029 292.233C367.459 288.685 367.321 288.575 363.278 288.575C351.781 288.575 340.312 288.575 328.815 288.575C326.819 288.503 324.865 289.158 323.314 290.417C313.303 298.009 298.065 294.763 292.84 284.036C291.354 280.983 291.574 280.598 294.957 280.598H330.383C342.1 280.598 353.817 280.598 365.506 280.598C368.559 280.598 369.549 279.443 369.604 276.748C369.604 274.602 369.824 272.457 369.851 270.312C369.851 251.884 364.048 236.014 349.856 223.775C340.871 216.136 329.707 211.526 317.951 210.6C304.742 208.838 291.318 211.436 279.72 217.999C259.972 229.688 251.225 247.731 251.445 270.257C251.665 291.793 260.275 309.203 279.142 320.48C293.153 328.691 309.844 331.024 325.57 326.971ZM292.565 256.285C294.027 252.684 296.554 249.617 299.808 247.493C303.063 245.369 306.888 244.291 310.772 244.403C314.606 244.26 318.391 245.29 321.624 247.354C324.858 249.417 327.386 252.418 328.87 255.954C329.943 258.512 329.338 259.035 326.725 258.98C321.362 258.815 315.998 258.98 310.635 258.98C305.271 258.98 299.908 258.98 294.545 258.98C292.317 258.98 291.602 258.705 292.455 256.285H292.565Z" fill="#7FBA27"/>
<path d="M871.942 224.05C862.984 216.391 851.839 211.752 840.092 210.793C825.028 208.835 809.77 212.476 797.213 221.024C771.002 239.232 767.508 276.308 780.903 299.796C793.582 321.965 813.908 330.299 838.497 328.401C862.233 326.531 878.983 314.401 888.005 292.15C889.353 288.822 889.242 288.712 885.777 288.712C873.868 288.712 861.958 288.712 850.021 288.712C848.318 288.714 846.674 289.34 845.401 290.473C835.307 298.174 819.821 294.901 814.706 284.009C813.358 281.259 813.578 280.736 816.768 280.736H852.194C864.131 280.736 876.04 280.736 887.95 280.736C890.26 280.736 891.333 279.993 891.415 277.711C891.498 275.428 891.773 273.007 891.773 270.642C892.048 252.104 886.134 236.207 871.942 224.05ZM849.169 259.09C843.668 259.09 838.002 259.09 832.418 259.09C826.835 259.09 821.416 259.09 815.916 259.09C813.935 259.09 813.496 258.595 814.238 256.67C815.631 253.036 818.111 249.921 821.341 247.75C824.57 245.579 828.391 244.458 832.281 244.54C836.224 244.362 840.124 245.415 843.441 247.554C846.758 249.693 849.328 252.812 850.792 256.477C851.672 258.32 851.479 259.008 849.196 258.953L849.169 259.09Z" fill="#7FBA27"/>
<path d="M697.673 323.065C697.673 313.301 697.673 303.537 697.673 293.773C697.673 286.594 697.673 279.416 697.673 272.237C697.801 263.968 696.604 255.731 694.125 247.841C689.887 234.905 680.966 224.02 669.114 217.323C657.263 210.627 643.336 208.601 630.068 211.645C618.574 214.253 608.211 220.461 600.489 229.365C592.767 238.269 588.088 249.405 587.133 261.153C585.483 282.139 586.803 303.179 586.446 324.193C586.446 326.503 587.739 326.42 589.196 326.42C600.198 326.42 611.2 326.42 622.201 326.42C624.952 326.42 625.667 325.76 625.639 323.037C625.502 305.792 625.639 288.52 625.639 271.247C625.571 268.137 625.904 265.031 626.63 262.006C627.317 258.785 628.951 255.843 631.324 253.559C633.696 251.275 636.697 249.753 639.941 249.189C643.037 248.662 646.22 249.12 649.042 250.496C651.864 251.873 654.184 254.099 655.675 256.862C658.093 261.198 659.255 266.122 659.03 271.082C659.03 288.437 659.03 305.82 659.03 323.203C659.03 325.705 659.745 326.448 662.275 326.42C673.029 326.283 683.756 326.255 694.51 326.42C697.123 326.503 697.7 325.54 697.673 323.065Z" fill="#7FBA27"/>
<path d="M129.326 326.448C140.19 326.31 151.027 326.283 161.864 326.448C164.614 326.448 165.247 325.568 165.219 322.982C165.219 305.82 165.219 288.657 165.219 271.522C165.158 268.406 165.472 265.294 166.154 262.253C166.864 258.699 168.726 255.477 171.45 253.086C174.174 250.695 177.61 249.267 181.227 249.024C187.938 248.501 194.016 252.819 196.849 260.025C198.102 263.554 198.69 267.284 198.581 271.027C198.581 288.272 198.581 305.545 198.581 322.817C198.581 325.375 199.131 326.338 201.909 326.283C212.663 326.118 223.391 326.145 234.145 326.283C236.62 326.283 237.445 325.678 237.39 323.093C237.253 313.219 237.39 303.344 237.39 293.498C237.39 285.769 237.39 278.041 237.39 270.339C237.466 262.499 236.239 254.701 233.759 247.263C230.844 238.675 225.843 230.945 219.205 224.765C212.567 218.585 204.499 214.148 195.725 211.853C186.951 209.558 177.744 209.476 168.93 211.614C160.116 213.752 151.971 218.044 145.223 224.105C131.884 236.289 126.438 251.939 126.273 269.624C126.108 287.309 126.273 305.215 126.273 323.01C126.025 325.815 126.768 326.475 129.326 326.448Z" fill="#7FBA27"/>
<path d="M502.475 212.443C491.859 212.443 481.215 212.608 470.571 212.443C467.298 212.443 466.473 213.35 466.473 216.596C466.583 252.627 466.583 288.657 466.473 324.688C466.473 331.701 463.722 335.002 457.011 336.872C455.222 337.382 453.37 337.641 451.51 337.642C449.612 337.642 448.76 338.412 448.897 340.393C448.897 350.899 448.897 361.406 448.897 371.913C448.897 373.728 449.53 374.443 451.345 374.278C454.646 374.003 458.001 373.921 461.274 373.48C472.153 372.489 482.479 368.232 490.896 361.269C501.705 351.835 505.474 339.265 505.529 325.513C505.529 307.938 505.529 290.335 505.529 272.76C505.529 253.782 505.529 234.804 505.529 215.826C505.776 213.048 505.006 212.415 502.475 212.443Z" fill="#7FBA27"/>
<path d="M752.46 166.786C742.063 166.923 731.639 166.978 721.242 166.786C718.107 166.786 717.254 167.721 717.282 170.774C717.282 196.078 717.282 221.354 717.282 246.658C717.282 271.962 717.282 297.651 717.282 323.175C717.282 325.678 717.942 326.475 720.527 326.448C731.254 326.31 741.98 326.283 752.735 326.448C755.485 326.448 756.365 325.815 756.365 322.9C756.365 272.09 756.365 221.299 756.365 170.526C756.42 167.418 755.293 166.758 752.46 166.786Z" fill="#7FBA27"/>
<path d="M451.125 246.356C451.125 235.097 451.125 223.839 451.125 212.58C451.125 210.765 450.492 210.16 448.677 210.242C443.534 210.412 438.412 210.982 433.357 211.948C405.853 217.256 385.17 236.481 383.849 265.911C383.437 275.097 383.849 284.339 383.849 293.415H383.602C383.602 303.262 383.602 313.136 383.602 322.982C383.602 325.458 384.207 326.338 386.82 326.31C397.822 326.173 408.823 326.145 419.66 326.31C422.41 326.31 422.85 325.485 422.823 323.037C422.823 305.572 422.823 288.107 422.823 270.614C422.618 266.457 423.783 262.347 426.138 258.914C428.492 255.481 431.907 252.915 435.86 251.609C439.961 249.96 444.315 249.03 448.731 248.859C450.547 249.051 451.125 248.281 451.125 246.356Z" fill="#7FBA27"/>
<path d="M566.149 322.817C566.149 305.022 566.149 287.254 566.149 269.459C566.149 251.664 566.149 233.704 566.149 215.771C566.149 213.323 565.516 212.388 562.903 212.415C552.067 212.553 541.231 212.415 530.394 212.415C528.056 212.415 527.23 213.02 527.23 215.496C527.23 251.508 527.23 287.502 527.23 323.478C527.23 325.733 527.863 326.421 530.146 326.393C540.983 326.393 551.82 326.228 562.656 326.393C565.572 326.503 566.149 325.513 566.149 322.817Z" fill="#7FBA27"/>
<path d="M526.596 184.856C526.514 187.493 526.984 190.119 527.975 192.564C528.967 195.009 530.458 197.22 532.353 199.056C534.249 200.891 536.506 202.311 538.982 203.224C541.457 204.137 544.096 204.523 546.729 204.357C558.666 204.357 566.615 196.518 566.642 184.773C566.818 182.085 566.416 179.391 565.463 176.871C564.511 174.352 563.029 172.065 561.119 170.166C559.209 168.266 556.915 166.798 554.39 165.859C551.865 164.92 549.169 164.533 546.482 164.723C543.818 164.607 541.16 165.051 538.679 166.025C536.197 167 533.947 168.483 532.074 170.38C530.201 172.276 528.745 174.544 527.802 177.038C526.859 179.531 526.448 182.194 526.596 184.856Z" fill="#7FBA27"/>
<path d="M485.862 164.723C483.198 164.587 480.536 165.014 478.049 165.977C475.561 166.941 473.305 168.418 471.428 170.313C469.551 172.209 468.095 174.479 467.156 176.975C466.216 179.472 465.814 182.139 465.976 184.801C465.976 196.546 474.09 204.357 486 204.357C497.909 204.357 505.913 196.546 505.968 184.829C506.146 182.142 505.749 179.449 504.801 176.929C503.854 174.408 502.379 172.12 500.475 170.216C498.571 168.312 496.283 166.837 493.763 165.89C491.243 164.943 488.548 164.545 485.862 164.723Z" fill="#7FBA27"/>
<path d="M239.618 411.354C235.865 411.504 232.326 413.139 229.778 415.898C227.23 418.657 225.882 422.316 226.031 426.069C226.188 429.819 227.825 433.354 230.583 435.901C233.34 438.447 236.995 439.797 240.746 439.656C244.496 439.498 248.031 437.862 250.578 435.104C253.124 432.346 254.474 428.692 254.333 424.941C254.175 421.191 252.539 417.655 249.781 415.109C247.024 412.563 243.369 411.212 239.618 411.354Z" fill="#7FBA27"/>
<path d="M190.383 385.28C185.9 387.8 182.603 391.998 181.215 396.95C179.828 401.901 180.464 407.201 182.984 411.684C184.216 413.919 185.881 415.887 187.881 417.473C189.88 419.059 192.175 420.232 194.632 420.923C197.089 421.614 199.659 421.809 202.192 421.498C204.725 421.187 207.172 420.375 209.388 419.11C213.87 416.589 217.168 412.393 218.56 407.443C219.952 402.493 219.325 397.194 216.814 392.706C214.293 388.217 210.092 384.913 205.136 383.521C200.179 382.128 194.873 382.761 190.383 385.28Z" fill="#7FBA27"/>
<path d="M168.573 431.79C161.552 432.069 154.927 435.121 150.153 440.277C145.378 445.433 142.844 452.272 143.104 459.294C143.383 466.315 146.435 472.939 151.591 477.714C156.747 482.488 163.586 485.023 170.608 484.763C177.63 484.476 184.252 481.423 189.029 476.269C193.807 471.116 196.351 464.281 196.105 457.258C195.812 450.237 192.751 443.617 187.592 438.845C182.434 434.073 175.596 431.536 168.573 431.79Z" fill="#7FBA27"/>
<path d="M76.2149 382.859C67.8137 387.588 61.6329 395.458 59.0287 404.74C56.4246 414.022 57.6098 423.958 62.3251 432.367C64.6617 436.532 67.796 440.196 71.5487 443.149C75.3014 446.103 79.5989 448.288 84.1962 449.58C88.7935 450.873 93.6006 451.247 98.3425 450.681C103.084 450.116 107.668 448.622 111.833 446.284C120.239 441.56 126.426 433.693 129.036 424.41C131.645 415.127 130.463 405.189 125.75 396.777C121.026 388.363 113.153 382.171 103.864 379.561C94.5749 376.951 84.6295 378.138 76.2149 382.859Z" fill="#7FBA27"/>
<path d="M149.57 80.0649C145.613 80.0321 141.791 78.6219 138.761 76.0768L138.266 75.6917V114.913C138.266 129.518 138.266 144.122 138.266 158.727C138.266 160.432 138.733 160.872 140.411 160.845C146.517 160.845 152.65 160.845 158.756 160.845C160.269 160.845 160.599 160.35 160.599 158.947C160.599 131.278 160.599 103.599 160.599 75.9117C157.54 78.5735 153.626 80.0474 149.57 80.0649Z" fill="#7FBA27"/>
<path d="M139.17 62.1046C142.113 64.3325 145.331 66.1477 148.192 68.4581C149.512 69.5033 149.814 69.4758 151.134 68.4581C153.115 66.8354 155.177 65.3227 157.295 63.8925C159.728 62.3151 161.932 60.4083 163.842 58.2266C166.442 55.445 167.964 51.8264 168.132 48.0225C168.096 46.3916 167.719 44.7864 167.028 43.3089C166.336 41.8315 165.345 40.5142 164.116 39.4411C160.706 36.4982 152.317 36.6906 150.117 41.0913C149.649 41.999 149.072 41.8614 148.522 41.0913C148.118 40.4079 147.574 39.8174 146.926 39.3585C145.445 38.3422 143.724 37.7312 141.934 37.5865C140.144 37.4417 138.347 37.7682 136.722 38.5334C134.346 39.7217 132.48 41.7299 131.468 44.1869C130.457 46.6439 130.37 49.3838 131.221 51.9005C132.764 56.0351 135.539 59.5968 139.17 62.1046Z" fill="#7FBA27"/>
<path d="M251.278 160.79C257.439 160.79 263.627 160.79 269.788 160.79C271.301 160.79 271.796 160.405 271.796 158.837C271.796 139.969 271.796 121.12 271.796 102.288C268.731 104.916 264.832 106.368 260.794 106.387C256.83 106.367 253.001 104.945 249.985 102.371L249.462 102.013C249.462 110.65 249.462 119.295 249.462 127.95C249.462 138.237 249.462 148.523 249.462 158.81C249.435 160.378 249.793 160.79 251.278 160.79Z" fill="#7FBA27"/>
<path d="M190.961 181.418C197.067 181.418 203.173 181.418 209.279 181.418C210.896 181.266 212.516 181.66 213.882 182.538C215.248 183.415 216.281 184.726 216.815 186.259C216.906 186.582 217.114 186.861 217.399 187.039C217.684 187.217 218.025 187.282 218.356 187.221H237.773C238.873 187.221 239.286 186.891 239.286 185.736C239.392 179.211 237.013 172.889 232.631 168.052C228.249 163.216 222.192 160.226 215.687 159.69C209.911 159.112 204.108 159.525 198.305 159.36C196.16 159.36 195.059 157.764 195.279 155.399C195.499 153.034 196.792 151.989 198.882 152.401C202.464 153.063 206.117 153.248 209.747 152.951C217.393 152.453 224.596 149.188 230.011 143.768C235.427 138.347 238.684 131.141 239.176 123.494C239.423 119.313 239.176 115.105 239.176 110.925H239.314C239.314 106.441 239.314 101.931 239.314 97.4475C239.314 95.7972 238.928 95.1921 237.168 95.2196C231.255 95.2196 225.314 95.2196 219.401 95.2196C216.953 95.2196 216.953 95.2198 216.953 97.6127C216.953 106.056 216.953 114.5 216.953 122.944C216.962 125.443 216.072 127.862 214.446 129.76C212.821 131.659 210.567 132.91 208.096 133.286C205.557 133.82 202.91 133.378 200.682 132.048C198.454 130.717 196.81 128.596 196.077 126.107C195.521 124.329 195.269 122.469 195.334 120.606C195.334 112.712 195.334 104.819 195.334 96.9524C195.334 95.5772 194.922 95.1372 193.519 95.1372C187.358 95.1372 181.188 95.1372 175.009 95.1372C173.359 95.1372 172.946 95.6323 172.974 97.2276C172.974 105.066 172.974 112.877 172.974 120.716C172.947 122.686 173.084 124.655 173.386 126.602C174.274 132.101 176.641 137.254 180.234 141.509C180.785 142.142 181.335 142.665 180.234 143.407C177.989 145.011 176.098 147.059 174.679 149.425C173.259 151.791 172.341 154.424 171.983 157.159C171.18 160.619 171.32 164.23 172.389 167.617C173.458 171.004 175.417 174.041 178.062 176.412C181.614 179.586 186.197 181.365 190.961 181.418Z" fill="#7FBA27"/>
<path d="M251.414 87.6285C254.165 89.6364 256.916 91.259 259.501 93.3218C260.684 94.2569 260.959 94.2294 262.252 93.3218C264.012 91.8916 265.882 90.5714 267.752 89.2512C269.927 87.8285 271.897 86.1168 273.611 84.163C275.939 81.674 277.305 78.4364 277.462 75.0315C277.427 73.5697 277.086 72.1314 276.46 70.8095C275.835 69.4877 274.939 68.3118 273.831 67.3579C270.778 64.6075 263.269 64.8549 261.316 68.8156C260.904 69.6407 260.381 69.5307 259.886 68.8156C259.522 68.2082 259.034 67.6836 258.456 67.2753C257.131 66.3659 255.591 65.8189 253.989 65.6886C252.387 65.5583 250.779 65.8493 249.324 66.5327C247.193 67.5917 245.519 69.3886 244.614 71.5893C243.708 73.79 243.633 76.2449 244.401 78.4971C245.753 82.1851 248.2 85.3714 251.414 87.6285Z" fill="#7FBA27"/>
<path d="M323.094 160.79C329.291 160.79 335.462 160.79 341.604 160.79C343.144 160.79 343.612 160.377 343.612 158.837C343.612 140.831 343.612 122.825 343.612 104.819C340.216 106.728 336.478 107.952 332.61 108.422C328.654 107.615 324.836 106.234 321.279 104.323C321.279 112.171 321.279 120.01 321.279 127.84C321.279 138.181 321.279 148.55 321.279 158.892C321.251 160.377 321.609 160.79 323.094 160.79Z" fill="#7FBA27"/>
<path d="M357.282 114.885C357.282 129.49 357.282 144.095 357.282 158.7C357.282 160.405 357.749 160.872 359.455 160.845C365.561 160.845 371.695 160.845 377.8 160.845C379.258 160.845 379.726 160.432 379.698 158.975C379.698 154.602 379.698 150.228 379.698 145.855C379.698 144.342 379.973 143.957 381.403 144.727C384.293 146.274 386.913 148.281 389.159 150.668C391.625 153.424 393.86 156.377 395.843 159.497C396.31 160.24 396.751 160.845 397.824 160.817C405.305 160.817 412.758 160.817 420.239 160.817C421.367 160.817 421.477 160.432 421.037 159.525C417.654 152.028 412.768 145.307 406.68 139.777C405.497 138.759 405.552 138.319 406.68 137.439C409.91 135.32 412.663 132.549 414.761 129.305C416.859 126.061 418.257 122.414 418.864 118.598C419.875 113.932 419.144 109.056 416.808 104.891C414.472 100.727 410.694 97.5606 406.184 95.9899C402.204 94.4787 397.958 93.7898 393.703 93.9647C389.449 94.1396 385.274 95.1747 381.431 97.0075C379.478 97.8877 379.505 97.9152 379.505 95.8249V71.5936C379.505 69.1182 379.506 69.1182 376.92 69.1182C371.117 69.1182 365.313 69.1182 359.51 69.1182C357.667 69.1182 357.117 69.5859 357.117 71.4837C357.31 85.9234 357.282 100.281 357.282 114.885ZM380.248 123.494C381.337 121.032 383.039 118.89 385.192 117.272C387.344 115.654 389.874 114.615 392.542 114.253C393.218 114.17 393.902 114.17 394.578 114.253C396.916 114.583 397.658 115.738 396.971 117.993C396.6 118.974 396.025 119.866 395.286 120.61C394.547 121.355 393.659 121.934 392.68 122.311C389.123 123.862 385.308 124.739 381.431 124.897C380.275 125.034 379.615 125.034 380.248 123.494Z" fill="#7FBA27"/>
<path d="M287.446 160.79C293.469 160.79 299.521 160.79 305.572 160.79C307.387 160.79 307.826 160.267 307.826 158.507C307.826 143.957 307.826 129.435 307.826 114.885C307.826 100.336 307.826 85.6758 307.826 71.0986C307.826 69.6409 307.524 69.0083 305.874 69.0358C299.713 69.0358 293.552 69.0358 287.391 69.0358C285.768 69.0358 285.438 69.6408 285.438 71.0711C285.438 100.409 285.438 129.673 285.438 158.865C285.411 160.542 286.098 160.79 287.446 160.79Z" fill="#7FBA27"/>
<path d="M323.339 87.6285C325.952 89.6364 328.84 91.259 331.425 93.3218C332.58 94.2569 332.883 94.2294 334.176 93.3218C335.936 91.8916 337.779 90.5714 339.677 89.2512C341.856 87.8358 343.829 86.1233 345.535 84.163C347.872 81.6767 349.247 78.4395 349.413 75.0315C349.367 73.5718 349.02 72.1373 348.396 70.8171C347.771 69.4969 346.882 68.3195 345.782 67.3579C342.729 64.6075 335.221 64.8549 333.24 68.8156C332.828 69.6407 332.333 69.5307 331.838 68.8156C331.464 68.215 330.979 67.692 330.408 67.2753C329.078 66.3661 327.533 65.8193 325.926 65.6891C324.32 65.5589 322.708 65.8496 321.249 66.5327C319.119 67.5918 317.447 69.3904 316.546 71.5922C315.645 73.794 315.576 76.2485 316.353 78.4971C317.683 82.1892 320.124 85.379 323.339 87.6285Z" fill="#7FBA27"/>
</g>
<defs>
<clipPath id="clip0_7691_21819">
<rect width="891.881" height="500" fill="white"/>
</clipPath>
</defs>
</svg>
