<svg width="112" height="87" viewBox="0 0 112 87" fill="none" xmlns="http://www.w3.org/2000/svg">
<g clip-path="url(#clip0_7518_21856)">
<path d="M66.6504 61.1291L33.6455 79.9594C33.5749 79.9933 33.5155 80.0463 33.4739 80.1122C33.4323 80.1781 33.4102 80.2543 33.4102 80.3321C33.4102 80.4099 33.4323 80.4861 33.4739 80.5521C33.5155 80.618 33.5749 80.6709 33.6455 80.7049L44.2115 86.7791C44.4787 86.9291 44.7804 87.008 45.0873 87.008C45.3943 87.008 45.696 86.9291 45.9632 86.7791L78.3009 68.3078C78.3714 68.2739 78.4308 68.2209 78.4724 68.155C78.5141 68.0891 78.5362 68.0129 78.5362 67.9351C78.5362 67.8573 78.5141 67.7811 78.4724 67.7151C78.4308 67.6492 78.3714 67.5963 78.3009 67.5623L67.1787 61.1291C67.1068 61.0632 67.0125 61.0266 66.9146 61.0266C66.8167 61.0266 66.7223 61.0632 66.6504 61.1291Z" fill="#E7EBEC"/>
<path d="M35.4805 75.8455V79.9042L45.0177 85.3986V81.3123L35.4805 75.8455Z" fill="#969290"/>
<path d="M76.4357 63.3104L45.0156 81.3123V85.3986L76.4357 67.3967V63.3104Z" fill="#C5C7C7"/>
<path d="M66.9005 57.8435L35.4805 75.8454L45.0177 81.3123L76.4378 63.3104L66.9005 57.8435Z" fill="url(#paint0_linear_7518_21856)"/>
<path d="M37.6484 74.9895L66.2323 58.6166C66.4332 58.4946 66.6641 58.4301 66.8996 58.4301C67.1351 58.4301 67.366 58.4946 67.5669 58.6166L74.2959 62.4821C74.3715 62.5221 74.4347 62.5818 74.4787 62.6547C74.5228 62.7277 74.5461 62.8111 74.5461 62.8962C74.5461 62.9813 74.5228 63.0648 74.4787 63.1377C74.4347 63.2107 74.3715 63.2704 74.2959 63.3104L45.712 79.6833C45.5111 79.8053 45.2802 79.8699 45.0447 79.8699C44.8092 79.8699 44.5782 79.8053 44.3773 79.6833L37.6484 75.8454C37.5735 75.8015 37.5113 75.7389 37.4682 75.6639C37.425 75.5888 37.4023 75.5039 37.4023 75.4175C37.4023 75.3311 37.425 75.2462 37.4682 75.1711C37.5113 75.0961 37.5735 75.0335 37.6484 74.9895Z" fill="#E7EBEC"/>
<path d="M51.8573 27.2514L51.2734 67.4243C51.2953 67.8408 51.431 68.2433 51.6662 68.5888C51.9014 68.9342 52.2271 69.2094 52.6081 69.3847C53.6227 69.8878 54.7412 70.1497 55.8752 70.1497C57.0093 70.1497 58.1277 69.8878 59.1423 69.3847C59.5206 69.2176 59.8468 68.9527 60.0865 68.6175C60.3262 68.2823 60.4707 67.8892 60.5048 67.4795L60.0321 27.2514H51.8573Z" fill="#B3D7F3"/>
<path d="M60.0893 36.3351C60.064 36.6975 59.9392 37.0461 59.7284 37.3431C59.5176 37.64 59.2289 37.8739 58.8936 38.0193C57.9919 38.4687 56.997 38.7026 55.988 38.7026C54.9791 38.7026 53.9841 38.4687 53.0823 38.0193C52.7506 37.869 52.4652 37.6338 52.2551 37.3378C52.045 37.0419 51.9178 36.6959 51.8867 36.3351V38.7924C51.9495 39.1254 52.0905 39.4389 52.2983 39.7075C52.506 39.9762 52.7746 40.1924 53.0823 40.3386C53.9949 40.8015 55.005 41.0429 56.0297 41.0429C57.0544 41.0429 58.0645 40.8015 58.9771 40.3386C59.2762 40.2023 59.5398 39.9995 59.7471 39.7457C59.9545 39.4919 60.1001 39.194 60.1728 38.8753L60.0893 36.3351Z" fill="#5778BA"/>
<path d="M60.2254 43.9832C60.1757 44.3456 60.0351 44.6898 59.8165 44.9841C59.5978 45.2784 59.3081 45.5134 58.9741 45.6674C58.042 46.1314 57.0138 46.373 55.9712 46.373C54.9285 46.373 53.9002 46.1314 52.9681 45.6674C52.6412 45.5184 52.3562 45.2919 52.138 45.0079C51.9198 44.7238 51.7752 44.3909 51.717 44.0384L51.3555 67.4243C51.3773 67.8407 51.5131 68.2433 51.7483 68.5888C51.9834 68.9342 52.3091 69.2094 52.6902 69.3846C53.7047 69.8877 54.8232 70.1496 55.9573 70.1496C57.0913 70.1496 58.2098 69.8877 59.2244 69.3846C59.6027 69.2176 59.9288 68.9526 60.1685 68.6175C60.4082 68.2823 60.5527 67.8892 60.5869 67.4795L60.2254 43.9832Z" fill="url(#paint1_linear_7518_21856)"/>
<path d="M112 25.6499L43.5154 64.9118L0 39.9797V39.2618L68.4846 0.386536L112 24.9321V25.6499Z" fill="#C5C7C7"/>
<path d="M43.5161 63.0067L2.78125 39.6484L68.4853 1.98795L109.192 25.3462L43.5161 63.0067Z" fill="white"/>
<path d="M68.4846 0L0 39.2618L43.5154 64.1111L112 24.8493L68.4846 0ZM2.80837 39.2618L68.4846 1.6014L109.22 24.9597L43.5154 62.6201L2.80837 39.2618Z" fill="#D5D4D4"/>
<path d="M17.6286 46.4957L6.11719 39.8969L25.6922 28.6595L37.2036 35.2583L17.6286 46.4957Z" fill="#7B98CE"/>
<path d="M39.1794 34.1263L27.668 27.5275L47.2429 16.2901L58.7544 22.8889L39.1794 34.1263Z" fill="#7B98CE"/>
<path d="M60.7536 21.7569L49.2422 15.158L68.8172 3.92065L80.3286 10.5195L60.7536 21.7569Z" fill="#7B98CE"/>
<path d="M30.363 53.7572L18.8516 47.1584L38.4265 35.921L49.938 42.5198L30.363 53.7572Z" fill="#7B98CE"/>
<path d="M51.9411 41.3878L40.4297 34.789L60.0047 23.5516L71.5161 30.1504L51.9411 41.3878Z" fill="#7B98CE"/>
<path d="M73.488 29.0184L61.9766 22.4195L81.5515 11.1822L93.063 17.8086L73.488 29.0184Z" fill="#7B98CE"/>
<path d="M43.0427 61.0463L31.5312 54.4475L51.1062 43.2377L62.6177 49.8366L43.0427 61.0463Z" fill="#7B98CE"/>
<path d="M64.5934 48.7045L53.082 42.0781L72.657 30.8683L84.1684 37.4671L64.5934 48.7045Z" fill="#7B98CE"/>
<path d="M86.1677 36.3351L74.6562 29.7363L94.2312 18.4989L105.743 25.0978L86.1677 36.3351Z" fill="#7B98CE"/>
</g>
<defs>
<linearGradient id="paint0_linear_7518_21856" x1="35.4805" y1="69.5779" x2="76.4378" y2="69.5779" gradientUnits="userSpaceOnUse">
<stop stop-color="#ECEEEC"/>
<stop offset="1" stop-color="#C2C7CB"/>
</linearGradient>
<linearGradient id="paint1_linear_7518_21856" x1="3669.4" y1="6096.81" x2="3700.14" y2="6096.81" gradientUnits="userSpaceOnUse">
<stop stop-color="#ECEEEC"/>
<stop offset="1" stop-color="#C2C7CB"/>
</linearGradient>
<clipPath id="clip0_7518_21856">
<rect width="112" height="87" fill="white"/>
</clipPath>
</defs>
</svg>
