<svg width="112" height="87" viewBox="0 0 112 87" fill="none" xmlns="http://www.w3.org/2000/svg">
<g clip-path="url(#clip0_7518_21877)">
<path d="M45.3496 61.1291L78.3545 79.9594C78.4251 79.9933 78.4845 80.0463 78.5261 80.1122C78.5677 80.1781 78.5898 80.2543 78.5898 80.3321C78.5898 80.4099 78.5677 80.4861 78.5261 80.5521C78.4845 80.618 78.4251 80.671 78.3545 80.7049L67.7885 86.7791C67.5213 86.9291 67.2196 87.008 66.9127 87.008C66.6057 87.008 66.304 86.9291 66.0368 86.7791L33.6991 68.3078C33.6286 68.2739 33.5692 68.221 33.5276 68.155C33.4859 68.0891 33.4638 68.0129 33.4638 67.9351C33.4638 67.8573 33.4859 67.7811 33.5276 67.7152C33.5692 67.6492 33.6286 67.5963 33.6991 67.5623L44.8213 61.1291C44.8932 61.0632 44.9875 61.0266 45.0854 61.0266C45.1833 61.0266 45.2777 61.0632 45.3496 61.1291Z" fill="#E7EBEC"/>
<path d="M76.5195 75.8454V79.9042L66.9823 85.3986V81.3123L76.5195 75.8454Z" fill="#969290"/>
<path d="M35.5643 63.3104L66.9844 81.3123V85.3986L35.5643 67.3967V63.3104Z" fill="#C5C7C7"/>
<path d="M45.0995 57.8435L76.5195 75.8454L66.9823 81.3123L35.5622 63.3104L45.0995 57.8435Z" fill="url(#paint0_linear_7518_21877)"/>
<path d="M74.3516 74.9895L45.7677 58.6166C45.5668 58.4946 45.3359 58.43 45.1004 58.43C44.8649 58.43 44.634 58.4946 44.4331 58.6166L37.7041 62.4821C37.6285 62.5221 37.5653 62.5818 37.5213 62.6547C37.4772 62.7277 37.4539 62.8111 37.4539 62.8962C37.4539 62.9813 37.4772 63.0648 37.5213 63.1377C37.5653 63.2107 37.6285 63.2703 37.7041 63.3104L66.288 79.6833C66.4889 79.8053 66.7198 79.8699 66.9553 79.8699C67.1908 79.8699 67.4218 79.8053 67.6227 79.6833L74.3516 75.8454C74.4265 75.8015 74.4887 75.7389 74.5318 75.6639C74.575 75.5888 74.5977 75.5039 74.5977 75.4175C74.5977 75.3311 74.575 75.2461 74.5318 75.1711C74.4887 75.096 74.4265 75.0335 74.3516 74.9895Z" fill="#E7EBEC"/>
<path d="M60.1427 27.2514L60.7266 67.4243C60.7047 67.8407 60.569 68.2433 60.3338 68.5888C60.0986 68.9342 59.7729 69.2094 59.3919 69.3846C58.3773 69.8877 57.2588 70.1496 56.1248 70.1496C54.9907 70.1496 53.8723 69.8877 52.8577 69.3846C52.4794 69.2176 52.1532 68.9526 51.9135 68.6175C51.6738 68.2823 51.5293 67.8892 51.4952 67.4795L51.9679 27.2514H60.1427Z" fill="#B3D7F3"/>
<path d="M51.9107 36.3351C51.936 36.6975 52.0608 37.0462 52.2716 37.3431C52.4824 37.64 52.7711 37.8739 53.1064 38.0194C54.0081 38.4687 55.003 38.7027 56.012 38.7027C57.0209 38.7027 58.0159 38.4687 58.9177 38.0194C59.2494 37.869 59.5348 37.6338 59.7449 37.3379C59.955 37.0419 60.0822 36.6959 60.1133 36.3351V38.7924C60.0505 39.1254 59.9095 39.4389 59.7017 39.7075C59.494 39.9762 59.2254 40.1924 58.9177 40.3386C58.0051 40.8015 56.995 41.0429 55.9703 41.0429C54.9456 41.0429 53.9355 40.8015 53.0229 40.3386C52.7238 40.2024 52.4602 39.9995 52.2529 39.7457C52.0455 39.4919 51.8999 39.194 51.8272 38.8753L51.9107 36.3351Z" fill="#5778BA"/>
<path d="M51.7746 43.9832C51.8243 44.3456 51.9649 44.6898 52.1835 44.9841C52.4022 45.2784 52.6919 45.5134 53.0259 45.6674C53.958 46.1314 54.9862 46.373 56.0288 46.373C57.0715 46.373 58.0998 46.1314 59.0319 45.6674C59.3588 45.5184 59.6438 45.2919 59.862 45.0079C60.0802 44.7238 60.2248 44.3909 60.283 44.0384L60.6445 67.4243C60.6227 67.8407 60.4869 68.2433 60.2517 68.5888C60.0166 68.9342 59.6909 69.2094 59.3098 69.3846C58.2953 69.8877 57.1768 70.1496 56.0427 70.1496C54.9087 70.1496 53.7902 69.8877 52.7756 69.3846C52.3973 69.2176 52.0712 68.9526 51.8315 68.6175C51.5918 68.2823 51.4473 67.8892 51.4131 67.4795L51.7746 43.9832Z" fill="url(#paint1_linear_7518_21877)"/>
<path d="M0 25.6499L68.4846 64.9118L112 39.9797V39.2618L43.5154 0.386543L0 24.9321V25.6499Z" fill="#C5C7C7"/>
<path d="M68.4839 63.0067L109.219 39.6484L43.5147 1.98794L2.80762 25.3462L68.4839 63.0067Z" fill="white"/>
<path d="M43.5154 -7.62939e-06L112 39.2618L68.4846 64.1111L-9.15527e-05 24.8492L43.5154 -7.62939e-06ZM109.192 39.2618L43.5154 1.60139L2.78045 24.9597L68.4846 62.6201L109.192 39.2618Z" fill="#D5D4D4"/>
<path d="M94.3714 46.4957L105.883 39.8969L86.3078 28.6595L74.7964 35.2583L94.3714 46.4957Z" fill="#7B98CE"/>
<path d="M72.8206 34.1263L84.332 27.5275L64.7571 16.2901L53.2456 22.8889L72.8206 34.1263Z" fill="#7B98CE"/>
<path d="M51.2464 21.7569L62.7578 15.158L43.1828 3.92066L31.6714 10.5195L51.2464 21.7569Z" fill="#7B98CE"/>
<path d="M81.637 53.7572L93.1484 47.1584L73.5735 35.921L62.062 42.5198L81.637 53.7572Z" fill="#7B98CE"/>
<path d="M60.0589 41.3878L71.5703 34.789L51.9953 23.5516L40.4839 30.1504L60.0589 41.3878Z" fill="#7B98CE"/>
<path d="M38.512 29.0184L50.0234 22.4196L30.4485 11.1822L18.937 17.8086L38.512 29.0184Z" fill="#7B98CE"/>
<path d="M68.9573 61.0463L80.4688 54.4475L60.8938 43.2377L49.3823 49.8366L68.9573 61.0463Z" fill="#7B98CE"/>
<path d="M47.4066 48.7045L58.918 42.0781L39.343 30.8683L27.8316 37.4671L47.4066 48.7045Z" fill="#7B98CE"/>
<path d="M25.8323 36.3351L37.3438 29.7363L17.7688 18.4989L6.25735 25.0977L25.8323 36.3351Z" fill="#7B98CE"/>
</g>
<defs>
<linearGradient id="paint0_linear_7518_21877" x1="76.5195" y1="69.5779" x2="35.5622" y2="69.5779" gradientUnits="userSpaceOnUse">
<stop stop-color="#ECEEEC"/>
<stop offset="1" stop-color="#C2C7CB"/>
</linearGradient>
<linearGradient id="paint1_linear_7518_21877" x1="-3557.4" y1="6096.81" x2="-3588.14" y2="6096.81" gradientUnits="userSpaceOnUse">
<stop stop-color="#ECEEEC"/>
<stop offset="1" stop-color="#C2C7CB"/>
</linearGradient>
<clipPath id="clip0_7518_21877">
<rect width="112" height="87" fill="white" transform="matrix(-1 0 0 1 112 0)"/>
</clipPath>
</defs>
</svg>
