<svg width="190" height="64" viewBox="0 0 190 64" fill="none" xmlns="http://www.w3.org/2000/svg">
<path d="M0.045772 30.1557C0.4541 22.3528 3.71303 14.9713 9.20399 9.41248C14.6949 3.85361 22.0358 0.504209 29.833 0C23.1979 2.8247 17.7156 7.81407 14.28 14.1544C10.8444 20.4948 9.65841 27.8121 10.9152 34.9131C12.1721 42.014 15.7976 48.4797 21.2007 53.2557C26.6038 58.0317 33.4657 60.8362 40.6672 61.2118C41.9078 61.287 43.1517 61.287 44.3923 61.2118C39.9268 63.125 35.0793 63.9797 30.2287 63.7089C26.0427 63.4907 21.9407 62.4494 18.1575 60.6444C14.3743 58.8395 10.9841 56.3064 8.18073 53.19C5.37739 50.0737 3.21595 46.4352 1.82007 42.4827C0.424201 38.5302 -0.178733 34.3414 0.045772 30.1557Z" fill="#295135"/>
<path d="M12.3156 27.7815C12.4357 25.3753 12.8481 22.9926 13.5437 20.686C13.2403 22.0785 13.0486 23.493 12.9705 24.916C12.635 31.2684 14.6466 37.5224 18.6226 42.4879C22.5986 47.4534 28.2614 50.7839 34.5334 51.8455C40.8054 52.9072 47.2488 51.6258 52.6374 48.2454C58.0261 44.8649 61.9838 39.6213 63.7576 33.5124C63.5033 38.5597 62.0515 43.474 59.5223 47.8492C56.993 52.2244 53.4589 55.9348 49.2119 58.674C46.4476 59.3313 43.6025 59.584 40.7656 59.4244C36.8168 59.2238 32.9465 58.2451 29.377 56.5445C25.8075 54.8438 22.6091 52.4548 19.9656 49.5145C17.322 46.5743 15.2853 43.1407 13.9725 39.4111C12.6597 35.6815 12.0966 31.7293 12.3156 27.7815Z" fill="#80BC00"/>
<path d="M26.2876 22.5142C26.2876 22.3914 26.2876 22.2823 26.3831 22.2823C26.4786 22.2823 26.4786 22.3914 26.4786 22.5142C26.4786 22.6371 26.4786 22.7599 26.3831 22.7599C26.2876 22.7599 26.2876 22.5961 26.2876 22.5142ZM25.7282 22.5142C25.7282 22.3369 25.8237 22.2004 25.9465 22.2004C26.0693 22.2004 26.1648 22.3369 26.1648 22.5142C26.1648 22.6916 26.0693 22.8417 25.9465 22.8417C25.8237 22.8417 25.7282 22.6916 25.7282 22.5142ZM25.2506 22.6507C25.2506 22.6145 25.265 22.5798 25.2905 22.5542C25.3161 22.5286 25.3508 22.5142 25.387 22.5142C25.4232 22.5142 25.4579 22.5286 25.4835 22.5542C25.5091 22.5798 25.5235 22.6145 25.5235 22.6507C25.5235 22.6869 25.5091 22.7216 25.4835 22.7472C25.4579 22.7728 25.4232 22.7872 25.387 22.7872C25.3508 22.7872 25.3161 22.7728 25.2905 22.7472C25.265 22.7216 25.2506 22.6869 25.2506 22.6507ZM24.8822 21.8729C24.8822 21.7911 25.0732 21.7228 25.3052 21.7228C25.5371 21.7228 25.7282 21.7911 25.7282 21.8729C25.7282 21.9548 25.5371 22.0367 25.3052 22.0367C25.0732 22.0367 24.8822 21.9684 24.8822 21.8729ZM54.7103 28.6955C54.7103 28.5317 54.7103 28.3953 54.8058 28.3953C54.9013 28.3953 54.915 28.5317 54.915 28.6955C54.915 28.8592 54.915 28.9957 54.8058 28.9957C54.6967 28.9957 54.7103 28.9274 54.7103 28.7637V28.6955ZM55.106 28.4771C55.106 28.4771 55.2425 28.3953 55.4062 28.3953C55.57 28.3953 55.7064 28.3953 55.7064 28.4771C55.7064 28.559 55.57 28.559 55.4062 28.559C55.2425 28.559 55.106 28.5863 55.106 28.5454V28.4771ZM55.106 27.6039C55.106 27.3173 55.106 27.0854 55.2288 27.0854C55.3516 27.0854 55.3516 27.3173 55.3516 27.6039C55.3516 27.8904 55.3516 28.1224 55.2288 28.1224C55.106 28.1224 55.0651 27.9586 55.0651 27.6721L55.106 27.6039ZM55.2288 26.6214C55.2288 26.5396 55.3516 26.485 55.4881 26.485C55.6245 26.485 55.7473 26.485 55.7473 26.6214C55.7473 26.7579 55.6382 26.7579 55.4881 26.7579C55.338 26.7579 55.1879 26.7715 55.1879 26.6896L55.2288 26.6214ZM55.5973 24.7247C55.761 24.3836 55.952 24.138 56.0475 24.179C56.1431 24.2199 56.0476 24.5337 55.9384 24.8749C55.8292 25.216 55.5836 25.4616 55.4881 25.4207C55.3926 25.3797 55.4062 25.1477 55.5563 24.793L55.5973 24.7247ZM37.3128 16.6742C37.3128 16.4831 37.3947 16.333 37.5039 16.333C37.613 16.333 37.7085 16.4831 37.7085 16.6742C37.7085 16.8652 37.613 17.0153 37.5039 17.0153C37.3947 17.0153 37.2719 16.9334 37.2719 16.7424L37.3128 16.6742ZM41.2972 17.7385L41.6111 17.8613H41.3381L41.2972 17.7385ZM36.385 16.797C36.3849 16.7778 36.3888 16.7589 36.3965 16.7414C36.4042 16.7239 36.4155 16.7082 36.4296 16.6953C36.4438 16.6824 36.4605 16.6727 36.4787 16.6667C36.4968 16.6607 36.516 16.6586 36.5351 16.6605C36.553 16.6605 36.5707 16.664 36.5873 16.6709C36.6039 16.6778 36.6189 16.6878 36.6316 16.7005C36.6442 16.7131 36.6543 16.7282 36.6611 16.7447C36.668 16.7613 36.6715 16.779 36.6715 16.797C36.6684 16.8321 36.6531 16.8651 36.6281 16.89C36.6032 16.915 36.5702 16.9303 36.5351 16.9334C36.5164 16.9477 36.4945 16.9573 36.4714 16.9616C36.4482 16.9658 36.4244 16.9646 36.4018 16.9579C36.3793 16.9513 36.3586 16.9395 36.3414 16.9233C36.3243 16.9072 36.3111 16.8873 36.3031 16.8652L36.385 16.797ZM44.572 16.2921L44.7767 16.6605C44.7767 16.6605 44.613 16.4967 44.2445 16.8652C43.8761 17.2336 45.1315 17.8613 45.2952 17.4246C45.3477 17.056 45.2601 16.6811 45.0496 16.374C45.0305 16.2421 44.976 16.118 44.8919 16.0146C44.8078 15.9113 44.6972 15.8327 44.572 15.7872C44.1217 15.6098 44.6539 15.2278 44.8449 15.5007C45.036 15.7736 45.2543 15.5007 45.2543 15.5007C45.2543 15.5007 45.418 14.5864 44.7358 15.0367C44.0535 15.487 44.1763 14.6274 43.9307 15.4188C43.6851 16.2102 44.4901 16.3603 44.4901 16.3603L44.572 16.2921ZM49.2113 10.5202C52.2014 12.2366 54.5094 14.9301 55.7473 18.1478C55.6676 18.2541 55.6245 18.3834 55.6245 18.5162C55.6245 18.6491 55.6676 18.7784 55.7473 18.8847C56.0202 19.2531 55.8429 19.8534 55.6382 19.6488C55.4335 19.4441 55.5563 18.8847 55.5563 18.8847C55.5563 18.8847 55.2015 18.8847 55.2698 18.2979C55.338 17.7112 55.1606 18.6254 54.9969 18.4207C54.8684 18.234 54.7631 18.0324 54.683 17.8203C54.683 17.8203 54.3146 18.5299 54.683 18.6117C55.0514 18.6936 55.1743 18.7755 55.106 19.103C55.0378 19.4305 54.8741 19.2258 55.2288 19.8262C55.5836 20.4265 55.529 21.3271 54.9969 21.4909C54.4647 21.6546 55.3107 21.8184 54.874 21.9685C54.4374 22.1185 54.1099 21.832 54.1099 22.0776C54.1099 22.3232 54.6148 22.3232 54.4647 22.7599C54.3146 23.1965 54.0008 22.678 54.0008 22.678C54.0008 22.678 54.1099 21.9957 53.8643 22.0776C53.6187 22.1595 53.7006 23.0464 54.1509 23.3602C54.6011 23.6741 54.3555 24.7248 54.0008 24.6429C53.646 24.561 53.7688 24.9294 53.7824 24.984C53.6753 24.5998 53.4894 24.242 53.2367 23.9333C52.9501 23.7287 53.3458 24.8885 53.1548 24.8066C52.9638 24.7247 53.3185 25.3251 53.3185 25.3251L53.4277 26.1302C53.4277 26.1302 53.8643 26.8943 53.5914 26.8124C53.3992 26.6618 53.2474 26.4657 53.1497 26.2418C53.0521 26.0179 53.0116 25.7732 53.032 25.5298C53.1275 25.0795 52.4316 24.9704 52.8273 24.5337C53.223 24.0971 52.3088 23.524 52.7181 23.1692C53.1275 22.8145 52.3088 22.9782 52.3088 23.292C52.3088 23.6059 52.2269 22.4051 51.954 22.1731C51.6811 21.9412 51.8312 21.4227 51.8312 21.4227C51.8312 21.4227 51.3263 22.0367 51.1216 21.8047C50.917 21.5728 50.9989 22.446 50.6304 22.7599C50.262 23.0737 50.2347 23.101 50.3166 23.5649C50.351 23.9414 50.314 24.321 50.2074 24.6838C50.2074 24.6838 50.5622 24.329 50.5622 24.8885C50.5622 25.4479 50.6714 26.1302 50.4394 25.7618C50.2707 25.4499 50.151 25.114 50.0846 24.7657C50.0846 24.7657 50.0846 25.3934 49.9073 25.3251C49.7299 25.2569 49.7981 24.4382 49.7981 24.4382C49.7981 24.4382 49.1704 24.4382 49.2113 23.333C49.2523 22.2277 48.4063 22.7326 48.7201 21.7365C48.7201 21.7365 48.1197 21.7365 48.1197 21.0542C48.1197 20.372 47.6558 20.795 47.6149 20.4948C47.5739 20.1946 47.0008 21.0815 46.4005 20.4948C45.8001 19.908 46.0866 19.8398 45.5681 20.0308C45.0496 20.2219 44.9404 19.1576 44.7358 19.0757C44.5311 18.9938 44.4083 19.2667 44.4083 19.2667L44.7358 19.8398C44.7358 19.8398 44.804 19.4578 44.8859 19.5806C44.9231 19.756 44.9231 19.9373 44.8859 20.1127L45.2543 20.6722C45.2543 20.6722 45.7591 20.6039 45.8001 20.3856C45.841 20.1673 46.0866 20.3856 46.0866 20.3856C46.0866 20.3856 46.8644 20.945 46.6051 21.177C46.3459 21.409 46.6052 21.9275 46.0866 22.4187C45.8027 22.6992 45.4634 22.9176 45.0905 23.06C45.0905 23.06 44.4902 23.6331 44.2855 23.5376C44.0902 23.4359 43.9225 23.2885 43.7965 23.1079C43.6706 22.9274 43.5902 22.719 43.5623 22.5006C43.5623 21.9821 42.689 21.2998 42.689 20.8632C42.689 20.4266 42.2523 19.908 42.2523 19.6624C42.2523 19.4168 41.9931 19.5533 41.9249 19.3895C41.8566 19.2258 42.0067 19.9899 42.0067 19.9899L43.0165 22.2686C43.0165 22.2686 43.2075 23.2647 43.5214 23.2647C43.8352 23.2647 43.9716 23.4558 43.9716 23.7423C43.9716 24.0288 43.7397 24.1789 44.6129 23.8651C45.4862 23.5513 45.7592 23.6058 45.4453 24.329C45.1288 24.856 44.8898 25.4259 44.7358 26.021C44.804 26.2121 44.0944 26.2121 44.0126 26.6487C43.9307 27.0854 43.4531 28.0132 43.3303 28.0132C43.2075 28.0132 43.3303 28.6954 43.5214 28.8865C43.7124 29.0775 44.0808 29.5278 43.8898 29.8417C43.6987 30.1555 43.958 30.4421 43.5623 30.7559C43.1666 31.0697 42.7572 31.0834 42.9756 31.4791C43.1939 31.8748 43.2894 32.0385 42.9756 32.1204C42.6617 32.2023 42.9755 32.4751 42.8254 32.6389C42.6754 32.8026 41.9249 33.403 41.9249 33.403C41.9249 33.403 41.3927 33.5531 41.1744 33.403C40.9561 33.2529 40.7514 33.8397 40.5877 33.4849C40.4239 33.1301 40.4103 32.8163 40.1374 32.6116C39.8645 32.4069 39.4551 32.3114 39.496 31.8475C39.537 31.3836 38.5409 30.8241 38.4999 30.019C38.459 29.214 38.8547 29.5824 38.5818 28.7364C38.3089 27.8904 38.3089 27.6584 37.9815 27.3719C37.654 27.0854 37.2583 27.6585 37.6267 26.1029C37.9951 24.5474 37.1764 25.5435 37.1764 25.5435C37.1764 25.5435 36.9853 25.7208 36.6715 25.2433C36.3577 24.7657 36.3031 24.9294 35.9483 25.0522C35.5935 25.175 35.3752 25.6663 34.9386 25.2296C34.5019 24.793 34.5156 25.6117 34.5156 25.6117C34.5156 25.6117 33.5877 24.9294 33.7105 24.6975C33.8333 24.4655 33.9015 24.2881 33.3421 24.0152C32.7826 23.7423 32.769 23.5376 32.8782 23.2647C32.9873 22.9918 32.5507 22.8827 32.8782 22.3914C33.2056 21.9002 32.7144 21.3817 33.1102 20.7813C33.5059 20.181 33.3967 19.6897 34.0243 19.5396C34.652 19.3895 34.0243 19.3895 34.0243 19.3895C34.0243 19.3895 34.3109 18.1069 34.8567 18.025C35.4025 17.9431 34.5429 17.6703 34.5429 17.6703C34.4621 17.5649 34.4097 17.4406 34.3906 17.3092C34.3715 17.1778 34.3864 17.0438 34.4337 16.9198C34.6248 16.565 34.2563 15.9646 34.8158 15.9646C35.3752 15.9646 35.7027 16.3603 35.8255 15.9646C35.9483 15.5689 35.9347 15.0094 35.4162 15.2005C34.8977 15.3915 35.8938 14.3681 36.2758 14.5455C36.0711 14.4209 35.8439 14.3375 35.6072 14.2999C35.6072 14.3954 35.4844 14.45 35.498 14.3681C35.5117 14.2863 35.498 14.2999 35.6072 14.2999C35.7163 14.2999 35.8664 13.836 35.8664 13.836L35.4162 13.7132C35.4162 13.7132 35.7164 14.1498 35.075 14.4773C34.4337 14.8048 34.5838 13.836 34.5838 13.836C34.5838 13.836 35.307 13.7541 35.307 13.5631C35.307 13.372 35.4708 13.2492 35.6754 13.0446C35.8801 12.8399 36.4395 12.7171 36.344 13.1946C36.3142 13.5189 36.4013 13.8432 36.5896 14.1089C36.5896 14.1089 37.0672 14.1089 37.231 13.9179C37.3796 13.7782 37.5731 13.696 37.7767 13.6859C37.7767 13.6859 37.613 13.2629 37.7767 13.1537C37.8157 13.1284 37.86 13.1126 37.9062 13.1073C37.9523 13.1021 37.999 13.1076 38.0427 13.1235C38.0863 13.1393 38.1257 13.1651 38.1577 13.1988C38.1897 13.2325 38.2134 13.2731 38.2271 13.3175C38.2926 13.4875 38.4006 13.6378 38.5409 13.7541L39.1003 13.4812L39.7007 13.3175C39.7007 13.3175 39.7007 12.8535 39.8644 12.7307C40.0282 12.6079 40.7651 12.1167 40.9288 12.4714C41.0925 12.8262 41.2563 11.5709 40.9288 11.68C40.6013 11.7892 40.7787 12.0758 40.3284 12.1986C39.8781 12.3214 39.8235 11.9666 39.8235 11.9666L40.3693 11.489C40.3693 11.489 40.2056 11.1888 39.9327 11.489C39.6598 11.7892 39.4142 11.721 39.3732 12.0075C39.3323 12.2941 39.6325 12.5124 39.2232 12.6079C39.1101 12.6355 39.0096 12.7002 38.9378 12.7918C38.8661 12.8834 38.8272 12.9964 38.8274 13.1128C38.8274 13.1128 38.2271 13.1128 38.1452 12.799C38.0633 12.4851 38.2543 12.1576 37.7767 12.5124C37.2992 12.8671 36.9854 12.8399 37.1764 12.5124C37.4526 12.2179 37.7811 11.9774 38.1452 11.8028C38.268 11.8028 38.6501 11.721 38.6501 11.4071C38.6727 11.2925 38.7181 11.1836 38.7836 11.0869C38.849 10.9902 38.9332 10.9076 39.0312 10.844C39.1292 10.7804 39.2389 10.737 39.3539 10.7166C39.4689 10.6961 39.5868 10.6989 39.7007 10.7249C40.2465 10.875 40.8196 10.2883 40.8196 10.2883C40.6808 10.1053 40.5065 9.95222 40.3072 9.83824C40.1078 9.72427 39.8875 9.65171 39.6594 9.62495C39.4313 9.5982 39.2002 9.61777 38.9799 9.6825C38.7595 9.74724 38.5545 9.8558 38.3771 10.0017C36.7397 10.9568 36.535 10.2064 37.0945 10.2883C37.6539 10.3701 37.8996 9.87891 38.2271 9.68787C38.5545 9.49684 38.2271 8.73269 37.5039 9.31943C36.9165 9.68026 36.2116 9.79778 35.539 9.64694L35.6754 9.2785C37.203 8.55305 38.8844 8.21117 40.574 8.28243C42.5888 8.29456 44.5868 8.64986 46.4823 9.33309C47.8468 9.64693 46.0457 9.76974 45.8001 9.68787C45.5545 9.606 43.8898 9.23756 43.8898 9.23756C43.8898 9.23756 43.8898 9.83797 43.1256 9.60601C42.3579 9.40347 41.5715 9.28 40.7787 9.23756C41.8976 9.38766 41.2835 9.68786 41.0243 9.75608L41.7748 9.68787C41.7748 9.68787 41.0107 10.6021 41.3381 10.3701C41.6656 10.1382 42.0477 9.64691 42.4843 10.0017C42.921 10.3565 42.2523 10.0836 41.9249 10.3701C41.5974 10.6567 41.652 10.5338 41.9249 10.7658C42.1173 10.9142 42.3507 10.9999 42.5935 11.0114H42.921L43.2757 10.8341L43.8761 11.0524L44.3537 10.9159L44.6675 10.6839C44.6675 10.6839 43.7124 10.684 43.7942 10.3292C43.8761 9.97442 44.6675 10.411 44.7494 10.0426C44.8313 9.6742 46.2231 10.6157 46.9872 10.0426C47.7513 9.46952 46.9872 10.2883 46.9872 10.2883L45.9093 10.4111C45.6636 10.4111 45.0769 10.2064 45.1178 10.4111C45.1863 10.6367 45.308 10.8426 45.4726 11.0114C45.4726 11.0114 45.8683 10.4929 46.3049 10.8067C46.7416 11.1206 46.455 10.1654 47.1782 10.643C47.9014 11.1206 47.2738 9.87889 47.7513 10.0563C48.2289 10.2337 47.6694 10.6157 48.2698 10.8613C48.8702 11.1069 49.1295 10.5885 49.1295 10.5885L49.2113 10.5202ZM35.4298 17.9431C35.7448 17.712 36.0779 17.5067 36.4259 17.3291C36.7534 17.22 37.3674 17.3291 37.5857 17.3291C37.8041 17.3291 37.9815 17.4656 37.9815 17.7794C37.9815 18.0932 37.2173 18.4617 37.6267 18.4617C38.036 18.4617 38.0633 18.1205 38.3908 18.2979C38.7183 18.4753 38.8138 18.9665 39.1413 18.7755C39.4687 18.5845 39.7553 18.0659 39.9873 18.2297C40.2193 18.3934 40.4785 18.6936 40.6968 18.6936C40.9151 18.6936 41.2836 18.8437 41.42 18.6936C41.5565 18.5435 42.5525 19.2258 42.266 18.5435C42.0892 18.2278 42.045 17.8548 42.1432 17.5065L41.6929 17.7385C41.6929 17.7385 41.2426 17.5065 41.0925 17.5474C40.9424 17.5884 40.7514 17.8886 40.6695 17.7385C40.6244 17.6198 40.6244 17.4887 40.6695 17.3701L40.4921 17.2199L40.5877 16.7833L40.6695 16.4558L41.0516 16.3467C41.0516 16.3467 41.9112 15.9646 42.1432 16.1829C42.7709 16.7833 43.1802 16.3057 43.1802 16.3057C43.1802 16.3057 42.5798 15.951 42.8118 15.8691C43.0438 15.7872 42.9755 15.3233 42.7299 15.3915C42.4843 15.4597 42.3888 15.6644 42.2251 15.5825C42.0358 15.5461 41.8413 15.5461 41.652 15.5825L41.42 15.3096L41.0925 15.6644L40.8196 16.142L40.6695 16.3467L40.4921 16.142L40.3011 16.4558H40.5877L40.3011 16.7151L40.0146 16.7833L40.2192 17.1381C40.2192 17.1381 39.9327 17.3837 40.0146 17.6293C40.0964 17.8749 39.8644 17.8203 39.8644 17.8203C39.8644 17.8203 39.305 17.3837 39.5779 17.0289C39.8508 16.6742 39.6461 16.797 39.496 16.6742C39.3459 16.5513 39.0321 16.1829 39.0321 16.1829L38.3089 15.6644L38.459 16.0738L38.9502 16.4558L39.1822 16.6196C39.1822 16.6196 39.3323 16.988 39.1822 16.947C39.0321 16.9061 38.9912 16.8515 38.9502 17.0971C38.9177 17.2429 38.8296 17.3702 38.7046 17.4519C38.7046 17.4519 38.7047 17.8886 38.5409 17.7794C38.3772 17.6702 38.3772 17.3837 38.2271 17.2609C38.077 17.1381 38.1588 16.8788 38.3908 17.0289C38.6228 17.179 38.7865 17.0289 38.7456 16.8242C38.7046 16.6196 38.0633 16.8242 38.0224 16.5377C37.9815 16.2511 37.8313 16.0328 37.6676 15.9919C37.5039 15.951 37.2583 16.1829 37.2583 16.1829L36.6715 16.3467C36.6715 16.3467 36.7807 16.3467 36.4941 16.6196C36.2076 16.8925 36.112 16.9198 36.112 17.0699C36.112 17.22 35.962 17.2336 35.7982 17.3427C35.6645 17.4593 35.5654 17.6104 35.5117 17.7794L35.4298 17.9431ZM42.1023 26.9352C42.1023 27.1672 42.1023 27.3582 42.2387 27.3582C42.3752 27.3582 42.3752 27.1672 42.3752 26.9352C42.3752 26.7033 42.3069 26.5259 42.2387 26.5259C42.1705 26.5259 42.0204 26.6897 42.0204 26.9626L42.1023 26.9352ZM55.2698 23.6741C55.2698 23.2647 55.3653 22.9236 55.4881 22.9236C55.6109 22.9236 55.7064 23.2647 55.7064 23.6741C55.7064 24.0834 55.6109 24.4109 55.4881 24.4109C55.3653 24.4109 55.1879 24.0971 55.1879 23.7014L55.2698 23.6741ZM55.2698 21.9275C55.2698 21.7365 55.3516 21.5727 55.4472 21.5727C55.5427 21.5727 55.6245 21.7365 55.6245 21.9275C55.6245 22.1186 55.5427 22.2959 55.4472 22.2959C55.3516 22.2959 55.2288 22.1595 55.2288 21.9548L55.2698 21.9275ZM55.8701 20.331C55.8701 20.1127 55.9793 19.9353 56.1021 19.9353C56.2249 19.9353 56.3477 20.1127 56.3477 20.331C56.3477 20.5493 56.2386 20.7267 56.1021 20.7267C55.9657 20.7267 55.8292 20.5766 55.8292 20.3583L55.8701 20.331ZM55.5427 29.0366V28.7227L55.8292 28.9547C55.8292 28.9547 56.1021 28.9547 55.7473 29.3914C55.3926 29.828 55.9111 29.9918 55.9111 29.9918C55.5953 30.894 55.1641 31.7517 54.6284 32.5434C54.6284 32.5434 54.0281 32.4752 53.9462 32.9527C53.8643 33.4303 53.3868 33.3894 53.032 33.3894C52.6772 33.3894 53.3867 32.7481 53.3867 32.7481C53.3226 32.4204 53.3809 32.0805 53.5505 31.7929C53.5334 31.6501 53.5462 31.5054 53.588 31.3679C53.6298 31.2303 53.6998 31.103 53.7934 30.9939C53.8871 30.8849 54.0024 30.7964 54.1321 30.7343C54.2617 30.6722 54.4029 30.6377 54.5466 30.6331L54.8331 30.0736C54.8331 30.0736 54.9559 30.0736 55.106 29.637C55.2561 29.2003 55.4335 29.637 55.4335 29.637L55.5427 29.0366ZM54.2737 26.4031C54.2737 26.4031 54.5466 26.6487 54.4647 26.1165C54.3828 25.5844 54.915 25.0795 55.0651 25.407C55.2152 25.7345 55.1879 25.8027 55.1879 25.8027C55.1879 25.8027 54.8331 26.1166 55.0242 26.2394C55.2152 26.3622 54.874 26.9216 54.874 27.3582C54.874 27.7949 54.5466 27.9586 54.1509 27.4401C54.0492 27.287 54.002 27.1042 54.0169 26.9211C54.0317 26.7379 54.1078 26.5651 54.2328 26.4304L54.2737 26.4031ZM52.5135 25.6799C52.5135 25.6799 52.8682 25.5298 53.032 26.444C53.1957 27.3583 53.7961 26.8397 53.7961 27.3173C53.7961 27.7949 53.4277 28.2452 53.7961 28.3134C54.1645 28.3816 54.6285 27.754 54.3556 28.559C54.0827 29.3641 53.3867 28.4362 53.3867 28.4362C53.3867 28.4362 53.6733 27.6448 53.3867 27.713C53.1002 27.7812 52.6772 27.5629 52.7181 27.0035C52.7591 26.444 52.9092 26.2393 52.7181 26.1165C52.5271 25.9937 52.4725 25.7072 52.4725 25.7072L52.5135 25.6799ZM44.8449 30.2783C44.8449 30.2783 45.1724 29.3232 45.3635 29.5142C45.5545 29.7052 45.8137 29.9918 45.5272 30.7968C45.2406 31.6019 45.609 31.3972 45.2133 31.9566C44.8176 32.5161 44.7358 32.1477 44.5311 32.1067C44.3264 32.0658 44.4083 31.6291 44.5311 31.2744C44.6539 30.9196 44.0126 31.0697 44.1763 30.674C44.2367 30.5607 44.3274 30.4662 44.4381 30.4012C44.5489 30.3362 44.6756 30.3031 44.804 30.3056L44.8449 30.2783ZM24.9231 22.8827C24.8579 23.2803 24.8579 23.6858 24.9231 24.0834C25.0459 24.4928 25.0459 24.2881 25.4143 24.0834C25.7827 23.8787 25.4825 23.7696 25.6054 23.5649C25.7282 23.3602 25.7691 23.1692 25.9738 23.5649C26.1784 23.9606 26.2057 23.9606 26.4923 23.7286C26.7788 23.4967 26.4923 23.9606 26.888 24.1244C27.2837 24.2881 26.9698 24.8476 27.2427 24.7657C27.5156 24.6838 27.8022 24.7657 28.0478 25.2433C28.2934 25.7208 27.8022 26.1165 28.3616 26.1165C28.9211 26.1165 28.8392 26.5668 29.3168 26.5668C29.7944 26.5668 29.3168 27.0853 30.1628 27.2354C31.0088 27.3855 30.04 28.9547 30.04 29.1185C30.04 29.2822 30.4767 31.1516 29.9581 30.9196C29.9034 30.8807 29.8386 30.8581 29.7715 30.8545C29.7044 30.8509 29.6377 30.8665 29.579 30.8994C29.5204 30.9323 29.4723 30.9811 29.4404 31.0403C29.4085 31.0994 29.394 31.1664 29.3987 31.2334C29.7944 32.0658 29.2759 31.8748 29.3987 32.2295C29.5215 32.5843 29.1258 32.9118 29.1258 32.9118C29.1258 33.7851 28.6482 33.0346 28.7574 33.2666C28.8665 33.4986 28.3617 33.3894 28.7574 33.5941C29.1531 33.7987 28.5254 33.9898 29.003 34.1126C29.4805 34.2354 29.3987 34.6311 29.7535 34.863C30.1082 35.095 31.9094 35.2588 30.2447 35.2315C29.7029 35.1615 29.1876 34.956 28.7464 34.634C28.3051 34.312 27.9522 33.884 27.7203 33.3894C26.6833 32.789 27.3246 32.0249 26.9699 31.8748C26.6151 31.7247 26.9699 31.1925 26.6424 30.7559C26.3149 30.3193 26.6424 29.3914 26.1239 29.0775C25.6054 28.7637 25.81 28.3134 25.3734 27.9177C24.9367 27.522 24.964 26.1984 24.8548 25.9665C24.7457 25.7345 25.2096 25.4889 25.2096 24.8066C25.2204 24.6886 25.2204 24.5698 25.2096 24.4518C25.2096 24.4518 25.1278 24.5746 24.8958 24.4518C24.6639 24.329 24.8822 22.91 24.8822 22.91L24.9231 22.8827ZM29.194 13.2629C29.194 13.2629 29.194 13.5085 29.194 13.7541C29.194 13.9997 28.7574 13.8769 28.7164 13.8633C28.6755 13.8496 28.8938 13.9451 28.8256 14.2317C28.7573 14.5182 28.348 14.2317 28.348 14.2317L27.9932 14.7502C27.9932 14.7502 27.9113 15.5416 28.2252 14.8593C28.539 14.1771 28.5118 14.7502 28.5118 14.7502C28.5118 14.7502 28.5117 15.064 28.7028 15.1459C28.8938 15.2278 29.1121 15.1459 29.1531 15.2687C29.194 15.3915 28.7437 15.9373 28.7437 15.9373C28.7437 15.9373 29.0303 15.6235 29.1121 15.9373C29.194 16.2511 29.1121 16.6605 28.5527 16.6605C27.9932 16.6605 28.5527 15.9782 28.5527 15.9782C28.5527 15.9782 27.5566 16.4558 27.5157 16.8652C27.4747 17.2745 28.1843 16.7833 28.1843 16.7833C28.1869 16.9294 28.1605 17.0746 28.1066 17.2105C28.0527 17.3463 27.9725 17.4701 27.8704 17.5747C27.5157 17.9841 27.311 17.9022 27.311 17.5747C27.311 17.2473 26.9971 17.6975 26.9562 18.1342C26.9153 18.5708 26.4786 18.1342 26.4786 18.4207C26.4786 18.7073 26.1511 18.8573 26.1511 19.3349C26.1511 19.8125 25.4416 20.331 25.4416 20.331C25.4416 20.331 25.5917 21.3681 25.155 21.3681C25.0459 21.3681 24.9913 21.3681 24.9913 21.3681C25.2325 21.0315 25.3484 20.6212 25.3188 20.2082C25.3188 18.9802 26.9971 17.4792 26.5196 17.8613C26.042 18.2433 26.1102 17.8613 26.1102 17.8613C26.7665 16.1274 27.8068 14.5646 29.1531 13.2902L29.194 13.2629ZM34.27 9.96075L34.1472 10.2746C34.419 10.1101 34.7016 9.96417 34.9932 9.83795C35.4298 9.63327 35.2661 9.91982 35.2661 9.91982C35.1757 10.1022 35.0198 10.2436 34.8294 10.3155C34.4747 10.4793 34.27 10.5885 34.4337 10.7113C34.5975 10.8341 34.1881 11.2707 34.0243 11.4344C33.8606 11.5982 33.7105 11.4344 33.4786 11.1069C33.2466 10.7795 33.233 11.6255 33.6696 11.6255C34.1062 11.6255 33.0692 12.0757 32.7554 12.5124C32.4415 12.949 32.5098 12.8672 32.0322 12.6352C31.5546 12.4033 31.7593 12.6352 31.3499 13.2219C30.9406 13.8087 30.7223 13.3447 30.7223 13.6722C30.7223 13.9997 30.5176 14.3818 30.2719 14.2999C30.0263 14.2181 30.272 13.8633 29.9581 14.2999C29.6443 14.7366 29.7944 14.0679 29.6852 13.6722C29.5761 13.2765 30.04 13.4266 30.04 13.4266C30.0406 13.3959 30.0343 13.3655 30.0216 13.3375C30.0089 13.3096 29.99 13.2849 29.9664 13.2653C29.9428 13.2456 29.9151 13.2315 29.8853 13.224C29.8555 13.2165 29.8245 13.2158 29.7944 13.2219C29.5624 13.2219 29.7944 12.8672 29.7944 12.8672C31.1079 11.6749 32.6054 10.7027 34.2291 9.98807L34.27 9.96075ZM34.6247 39.1749C34.6247 39.1749 35.9893 39.0111 36.1803 39.4614C36.3713 39.9117 36.9854 39.4614 37.5448 39.6115C38.1043 39.7616 37.5448 39.0521 37.9815 39.1749C38.4181 39.2977 38.3771 38.7792 38.3771 38.7792L39.0185 39.2568C39.0185 39.2568 38.1043 39.3796 38.268 39.6115C38.4317 39.8435 39.1413 39.7753 39.9054 39.9799C40.6695 40.1846 40.8605 39.7753 40.8605 39.7753C40.8605 39.7753 40.7378 39.2568 39.9736 39.6115C39.2095 39.9663 39.4551 38.9839 39.4551 38.9839C39.4551 38.9839 41.7748 38.3016 41.2972 39.093C41.1198 39.3932 41.4336 39.4887 41.9112 39.4887C41.8416 39.2853 41.8416 39.0645 41.9112 38.8611C42.1841 37.7422 42.6208 37.5784 43.071 37.6603C43.5213 37.7422 42.6617 38.7382 43.071 38.7792C43.2657 38.7933 43.4493 38.8754 43.5896 39.0112L42.9892 39.3796C43.5077 39.2977 43.9444 39.2022 43.9444 39.2022L43.7397 38.4108C43.8828 38.0024 44.0467 37.6016 44.2309 37.21C44.5038 36.6096 44.5448 37.6466 44.3401 37.8922C44.1354 38.1379 44.7494 38.6018 44.7494 38.6018C45.0397 38.3271 45.3975 38.1341 45.7864 38.0424C46.496 37.8513 46.1003 38.3698 46.1003 38.3698C45.7022 38.4467 45.3308 38.6253 45.0223 38.8884C44.8121 39.1407 44.6376 39.4207 44.5038 39.7207C44.5038 39.7207 46.1821 39.4478 45.2679 39.4478C44.3537 39.4478 47.0145 38.4108 47.0145 38.4108C47.0145 38.4108 47.7377 37.9605 47.6558 38.4108C47.5739 38.8611 46.4141 39.0794 46.4141 39.0794C46.4715 39.1311 46.5396 39.1698 46.6134 39.1926C46.6873 39.2154 46.7653 39.2219 46.8419 39.2115C46.9186 39.2011 46.992 39.1741 47.0572 39.1325C47.1223 39.0908 47.1776 39.0354 47.2192 38.9702C47.6149 38.3289 49.8527 37.8104 49.8527 37.8104C47.3713 39.488 44.468 40.4337 41.4746 40.5394C39.1023 40.6725 36.7341 40.213 34.5838 39.2022L34.6247 39.1749Z" fill="#295135"/>
<path d="M161.616 45.097H157.523V30.3604H161.616V45.097ZM145.461 37.7287C145.579 36.6033 145.425 35.466 145.01 34.413C144.771 34.1304 144.468 33.9088 144.127 33.7665C143.785 33.6241 143.414 33.5651 143.045 33.5942H141.258V41.8768H143.045C143.416 41.9066 143.788 41.8465 144.13 41.7016C144.472 41.5567 144.774 41.3312 145.01 41.0444C145.294 40.5545 145.449 40.0005 145.461 39.4343V37.7287ZM149.554 37.7287C149.587 38.7949 149.542 39.8621 149.418 40.9216C149.302 41.5593 149.056 42.1662 148.694 42.704C148.332 43.2418 147.863 43.6988 147.316 44.0464C146.126 44.7819 144.744 45.1476 143.346 45.097H137.178V30.3604H143.346C144.743 30.3163 146.123 30.6815 147.316 31.411C147.865 31.7594 148.336 32.2185 148.698 32.7588C149.059 33.2992 149.305 33.909 149.418 34.5494C149.541 35.6044 149.587 36.667 149.554 37.7287ZM125.443 35.1089C125.442 34.9039 125.395 34.7018 125.305 34.5175C125.216 34.3333 125.086 34.1716 124.925 34.0446C124.569 33.7503 124.118 33.5952 123.656 33.6079H121.35V36.5962H123.628C124.112 36.6576 124.601 36.5306 124.993 36.2414C125.151 36.1004 125.273 35.9248 125.352 35.7282C125.43 35.5316 125.461 35.3196 125.443 35.1089ZM130.41 45.097H125.675L122.728 39.639H121.363V45.097H117.27V30.3604H123.847C125.331 30.3075 126.785 30.792 127.94 31.7249C128.471 32.1224 128.898 32.6431 129.183 33.2421C129.469 33.8411 129.604 34.5005 129.578 35.1634C129.588 36.0108 129.329 36.8396 128.839 37.5309C128.348 38.2222 127.652 38.7404 126.849 39.0113L130.41 45.097ZM105.235 39.8846L103.87 35.9549L102.369 39.8846H105.235ZM111.348 45.097H107.077L106.299 42.9139H101.182L100.377 45.097H96.0927L102.151 30.3604H105.303L111.348 45.097ZM92.777 30.3604L87.7555 39.0932V45.097H83.662V39.0932L78.6406 30.3604H83.1026L85.7088 35.6683L88.3013 30.3604H92.777ZM184.799 45.097H180.706V38.0426L177.595 42.9684H176.23L173.379 38.0426V45.097H169.285V30.3604H173.297L177.035 36.8691L180.774 30.3604H184.786L184.799 45.097Z" fill="#295135"/>
<path d="M102.862 60.1341H101.975L105.509 49.4773H106.41L102.862 60.1341ZM93.8293 50.5825V59.1517C94.0292 59.1638 94.2297 59.1638 94.4296 59.1517C96.1626 59.1517 97.8409 58.1965 97.8409 54.6215C97.8409 51.8925 96.7766 50.528 94.5661 50.528C94.3193 50.5239 94.0727 50.5422 93.8293 50.5825ZM92.2464 60.1341V49.7775C92.9466 49.6332 93.6602 49.5645 94.375 49.5728C95.5143 49.5044 96.6472 49.7853 97.6226 50.3778C98.2712 50.8724 98.7832 51.5241 99.1102 52.2713C99.4373 53.0185 99.5686 53.8367 99.492 54.6488C99.5747 55.4683 99.4676 56.2958 99.1789 57.0672C98.8902 57.8387 98.4277 58.5333 97.8273 59.0971C96.7349 59.9299 95.3771 60.3372 94.0066 60.2432C93.4169 60.239 92.8284 60.1888 92.2464 60.0932V60.1341ZM87.9209 49.6274H89.5174V60.175H87.9346L87.9209 49.6274ZM81.1666 56.0406H83.7864L83.0769 53.3116C82.8722 52.5611 82.6812 51.6878 82.5175 50.8964C82.2719 51.7014 82.0672 52.6157 81.8761 53.3116L81.1666 56.0406ZM83.9912 57.023H80.9346L80.0204 60.175H78.4922L81.6578 49.6274H83.4044L86.4745 60.175H84.919L83.9912 57.023Z" fill="#80BC00"/>
<path d="M162.708 4.17529H168.343L175.548 24.8749H169.912L168.657 21.2317H162.394L161.138 24.8203H155.503L162.708 4.17529ZM165.532 12.3623L163.908 17.0153H167.156L165.532 12.3623ZM104.921 4.17529H110.556L117.761 24.8749H112.125L110.87 21.2862H104.607L103.351 24.8749H97.7024L104.921 4.17529ZM107.745 12.3623L106.121 17.0153H109.369L107.745 12.3623ZM122.059 17.6293L114.854 4.20257H120.476L124.87 12.3896L129.263 4.20257H134.885L127.722 17.6021V24.8749H122.1L122.059 17.6293ZM89.6518 4.17529H95.2872V24.8749H89.6518V16.6879H84.0573V24.8749H78.4219V4.17529H84.0573V11.8984H89.6518V4.17529ZM178.795 4.17529H189.998V8.95107H184.417V24.9431H178.795V8.95107H173.214V4.17529H178.795ZM147.33 10.9296C147.336 10.6454 147.275 10.3637 147.152 10.1076C147.028 9.85145 146.846 9.62815 146.62 9.45594C146.127 9.04615 145.5 8.83239 144.86 8.85555H141.64V12.9491H144.86C145.495 12.969 146.118 12.7663 146.62 12.376C146.838 12.2024 147.015 11.9826 147.137 11.7325C147.26 11.4824 147.326 11.2082 147.33 10.9296ZM154.275 24.8749H147.657L143.564 17.22H141.653V24.8749H135.909V4.32537H145.092C147.125 4.25103 149.12 4.89339 150.727 6.14019C151.458 6.702 152.046 7.42885 152.442 8.26128C152.838 9.09372 153.031 10.0081 153.006 10.9296C153.024 12.1099 152.668 13.2655 151.989 14.2312C151.31 15.1968 150.343 15.923 149.226 16.3058L154.275 24.8749Z" fill="#295135"/>
<path d="M119.538 54.9077L120.22 53.1065C120.891 54.2779 121.296 55.5821 121.408 56.9272C121.3 57.8 120.992 58.6361 120.507 59.3697H111.72C107.749 59.3697 108.063 56.4496 108.472 55.5081C108.881 54.5666 110.369 52.5062 109.304 54.6758C109.147 54.9956 109.07 55.3493 109.082 55.7057C109.093 56.0621 109.192 56.4102 109.37 56.7192C109.548 57.0282 109.8 57.2884 110.103 57.477C110.405 57.6656 110.75 57.7767 111.106 57.8005H120.452C120.739 57.0636 119.538 54.9077 119.538 54.9077ZM124.696 60.0246C124.696 60.0246 124.56 55.9311 123.864 51.0325C123.771 49.6747 124.147 48.3262 124.928 47.2119C124.928 47.2119 125.378 53.3795 125.528 56.2449C125.679 59.1104 124.655 60.0246 124.655 60.0246H124.696ZM145.791 59.1377C142.335 59.2923 139.051 59.4015 135.94 59.4652C135.94 59.4652 134.411 59.0422 134.411 57.664C134.411 57.664 133.729 59.0286 133.047 59.3287C132.078 59.7927 127.93 60.0655 128.121 59.0012C128.312 57.9369 128.626 56.2722 128.817 56.3405C129.008 56.4087 128.135 58.2235 130.181 58.2235C132.228 58.2235 133.866 57.7868 133.961 56.9272C133.838 55.6864 133.573 54.4639 133.17 53.2839L134.057 51.7148C134.396 53.0608 134.642 54.4285 134.793 55.8083C134.793 55.8083 134.793 57.8278 136.404 57.8278H138.982C138.653 57.7441 138.371 57.5333 138.197 57.2418C138.023 56.9502 137.972 56.6015 138.055 56.2722C138.341 55.0305 141.643 51.7421 143.212 53.2294C144.782 54.7167 145.014 55.6309 144.741 55.5354C144.468 55.4399 143.513 53.9116 141.848 54.3346C140.183 54.7576 139.023 55.0715 139.214 55.5763C139.405 56.0812 139.624 57.2683 142.435 57.8278L146.528 57.6913L145.791 59.1377ZM182.551 50.3912C182.462 50.354 182.382 50.2971 182.318 50.2246C182.253 50.1522 182.206 50.0661 182.18 49.9729C182.154 49.8797 182.149 49.7817 182.166 49.6864C182.183 49.591 182.221 49.5008 182.278 49.4224C182.701 48.7811 183.343 47.6212 183.343 47.6212C183.343 47.6212 182.892 48.4945 183.984 49.054C185.076 49.6134 184.571 49.8317 184.571 49.8317L183.984 51.1962H183.67C183.67 51.1962 184.448 56.9954 184.079 58.2371C183.711 59.4788 183.616 59.5334 183.616 59.5334H178.512V58.3736C178.512 58.3736 177.816 59.6289 177.312 59.6289H173.805L173.163 60.2702L169.288 58.0734C169.288 58.0734 168.742 59.547 167.924 59.547H165.29L164.963 59.0012C164.523 59.3447 164.001 59.566 163.448 59.6426C162.753 59.4982 162.094 59.2151 161.511 58.8102C160.91 59.2842 160.161 59.5306 159.396 59.5061H157.144C157.144 59.5061 156.08 59.0422 156.08 58.6738C156.08 58.3053 155.67 59.547 154.511 59.547H149.721C149.721 59.547 149.298 51.8512 148.848 48.822L149.899 47.1982C149.899 47.1982 150.049 49.9273 150.226 52.6563C150.403 55.3853 150.417 57.9915 151.331 57.9506C152.245 57.9096 155.288 57.9506 155.288 57.9506C155.288 57.9506 156.489 58.2371 156.121 56.395L157.553 54.9623C157.553 54.9623 157.553 57.1592 156.776 57.896C158.307 58.2437 159.897 58.2437 161.429 57.896V56.5315L162.943 55.0169L162.111 57.7459C162.912 58.0125 163.769 58.0596 164.594 57.8823L164.362 56.1494L165.386 54.7849C165.573 55.8181 165.573 56.8765 165.386 57.9096H168.565C168.565 57.9096 169.07 57.9097 169.343 56.9409C169.616 55.9721 169.848 55.7537 170.912 55.0988C171.976 54.4438 173.122 53.9935 173.122 54.5939C173.122 55.1943 173.627 57.7732 174.828 57.8551C176.029 57.9369 178.294 57.8551 178.294 57.8551C178.099 54.9876 177.758 52.132 177.271 49.2996L178.526 47.4984C178.526 47.4984 178.758 50.2275 179.072 54.4574C179.249 56.7907 179.29 57.5549 179.304 57.7732H183.397C183.312 55.2917 183.016 52.8221 182.51 50.3912H182.551ZM170.161 56.7089C171.69 57.664 172.604 58.0734 172.89 58.0734C172.828 57.374 172.609 56.6977 172.249 56.0948C171.69 55.0578 170.161 56.7089 170.161 56.7089ZM115.322 51.4828L116.973 52.5881L116.277 53.7479L114.612 52.6426L113.93 53.8707L112.17 52.7109L112.866 51.5238L114.612 52.6426L115.322 51.4828Z" fill="#80BC00"/>
</svg>
