<svg width="206" height="340" viewBox="0 0 206 340" fill="none" xmlns="http://www.w3.org/2000/svg">
<path d="M39.482 4.59811e-05H134.858C136.055 -0.00455945 137.224 0.354983 138.207 1.02984C139.19 1.70469 139.939 2.66213 140.351 3.77207L205.626 177.588C205.959 178.462 206.072 179.404 205.955 180.331C205.838 181.258 205.494 182.144 204.954 182.91C204.413 183.677 203.691 184.302 202.852 184.732C202.012 185.161 201.079 185.383 200.133 185.376H111.255C110.3 185.36 109.356 185.576 108.505 186.005C107.655 186.434 106.924 187.063 106.377 187.837C105.83 188.61 105.484 189.505 105.369 190.441C105.254 191.378 105.374 192.328 105.718 193.208L159.948 331.938C160.531 333.259 160.592 334.747 160.119 336.11C159.646 337.473 158.673 338.611 157.393 339.299C156.112 339.988 154.617 340.177 153.202 339.83C151.787 339.483 150.555 338.624 149.749 337.424L1.13323 135.62C0.492606 134.76 0.106909 133.74 0.0192085 132.675C-0.0684923 131.61 0.145284 130.542 0.636645 129.591C1.12801 128.639 1.87758 127.841 2.80154 127.287C3.7255 126.732 4.78739 126.442 5.86854 126.449H71.9736C72.9264 126.454 73.8658 126.228 74.7096 125.79C75.5534 125.353 76.2758 124.718 76.8136 123.941C77.3513 123.164 77.6881 122.268 77.7944 121.332C77.9006 120.397 77.773 119.45 77.4228 118.574L34.0327 7.86083C33.6856 6.98596 33.5605 6.04045 33.6681 5.10678C33.7758 4.17312 34.1131 3.27967 34.6505 2.5044C35.188 1.72914 35.9092 1.0956 36.7514 0.659069C37.5936 0.222539 38.531 -0.00370872 39.482 4.59811e-05Z" fill="#FCD100" fill-opacity="0.2"/>
</svg>
